<svg width="30" height="30" viewBox="0 0 30 30" fill="none" xmlns="http://www.w3.org/2000/svg">
<path d="M28.9065 13.12L16.8932 1.10669C15.8932 0.106693 14.1332 0.0933595 13.1198 1.10669L1.11984 13.1067C0.0798438 14.1467 0.0798438 15.8267 1.11984 16.8667L13.1198 28.8667C13.6398 29.3867 14.3198 29.64 14.9998 29.64C15.6798 29.64 16.3598 29.3867 16.8798 28.8667L28.8665 16.88C29.9198 15.8667 29.9332 14.1867 28.9065 13.12ZM15.0132 26.9867L3.01318 14.9867L15.0132 2.98669L27.0132 14.9867L15.0132 26.9867ZM9.66651 13.6667V19H12.3332V15H17.6665V18.3334L22.3332 13.6667L17.6665 9.00003V12.3334H10.9998C10.2665 12.3334 9.66651 12.9334 9.66651 13.6667Z" fill="#3781FC"/>
</svg>
