<svg width="20" height="20" viewBox="0 0 20 20" fill="none" xmlns="http://www.w3.org/2000/svg">
<path d="M17.4927 17.1115C18.003 17.3227 18.5879 17.0802 18.799 16.5699C19.0102 16.0595 18.7677 15.4747 18.2574 15.2635L17.4927 17.1115ZM1.94485 8.51349C1.43453 8.30232 0.849651 8.54483 0.638484 9.05515C0.427317 9.56547 0.669828 10.1504 1.18015 10.3615L1.94485 8.51349ZM4.17647 2H15.8235V0H4.17647V2ZM15.8235 18H4.17647V20H15.8235V18ZM2 15.8235V4.17647H0V15.8235H2ZM4.17647 18C2.97444 18 2 17.0256 2 15.8235H0C0 18.1301 1.86987 20 4.17647 20V18ZM18 15.8235C18 17.0256 17.0256 18 15.8235 18V20C18.1301 20 20 18.1301 20 15.8235H18ZM15.8235 2C17.0256 2 18 2.97444 18 4.17647H20C20 1.86987 18.1301 0 15.8235 0V2ZM4.17647 0C1.86987 0 0 1.86987 0 4.17647H2C2 2.97444 2.97444 2 4.17647 2V0ZM18 8.875V15.8235H20V8.875H18ZM2.30515 3.04902L12.8676 7.41969L13.6323 5.57166L3.06985 1.20098L2.30515 3.04902ZM12.8676 7.41969L18.6176 9.79902L19.3824 7.95098L13.6323 5.57166L12.8676 7.41969ZM14.9369 1.09997L12.3634 6.03315L14.1366 6.9582L16.7101 2.02503L14.9369 1.09997ZM18.2574 15.2635L1.94485 8.51349L1.18015 10.3615L17.4927 17.1115L18.2574 15.2635ZM18 4.17647V8.875H20V4.17647H18Z" fill="#AEAEAE"/>
</svg>
