<svg width="150" height="130" viewBox="0 0 150 130" fill="none" xmlns="http://www.w3.org/2000/svg">
<path fill-rule="evenodd" clip-rule="evenodd" d="M61.2587 55.8565C53.2411 61.3155 47.2161 67.9718 47.2161 81.3896C47.2161 101.666 60.9757 121.183 74.574 121.183C88.1722 121.183 101.932 101.666 101.932 81.3893C101.932 67.9715 95.9072 61.3152 87.8895 55.8562C87.8895 55.8562 87.8895 55.855 87.8887 55.8541C87.8883 55.8535 87.8875 55.853 87.8863 55.853C84.2177 50.9816 82.0353 44.1452 82.0353 38.5306V0L107.542 10.4674C108.843 11.001 109.814 12.119 110.161 13.4816L117.76 43.3734L131.793 49.6444C133.098 50.2276 134.042 51.4031 134.33 52.8029L149.135 124.663C149.404 125.97 149.071 127.33 148.228 128.364C147.384 129.399 146.12 130 144.785 130H4.44121C3.10633 130 1.84199 129.399 0.998517 128.364C0.15504 127.33 -0.178095 125.97 0.0915027 124.663L14.8964 52.8029C15.1846 51.4031 16.1292 50.2276 17.4341 49.6444L31.4666 43.3734L39.0663 13.4816C39.4126 12.119 40.3837 11.001 41.6845 10.4674L67.1126 0.0323866L67.1127 38.5309C67.1127 48.0787 61.8466 55.074 61.3038 55.7952C61.2743 55.8343 61.2587 55.855 61.2587 55.8565Z" fill="white"/>
</svg>
