<svg width="178" height="136" viewBox="0 0 178 136" fill="none" xmlns="http://www.w3.org/2000/svg">
<g clip-path="url(#clip0_621_2099)">
<path opacity="0.1" d="M173.883 36.7447C172.129 32.6637 169.757 28.8779 166.852 25.5204L69.2704 24.557L149.612 13.2553C144.421 11.1858 138.896 10.0882 133.31 10.0172C125.625 3.86418 116.161 0.360471 106.328 0.0272489C96.4943 -0.305973 86.8161 2.54909 78.733 8.16773C72.2724 4.84012 65.1101 3.11059 57.8453 3.12385C36.1636 3.12385 18.0977 18.1647 14.0454 38.1082L173.883 36.7447Z" fill="#FFC833"/>
<path opacity="0.1" d="M177.315 53.4719C177.32 48.0631 176.288 42.7036 174.275 37.6845L5.1552 55.4642C3.4174 58.6234 2.08786 61.9912 1.19857 65.4864L53.5731 73.3045L0 79.0057C1.61153 101.584 20.9364 119.412 44.5436 119.412C56.4269 119.412 67.2258 114.895 75.2263 107.527C83.2521 115.034 94.155 119.651 106.166 119.651C123.988 119.651 139.37 109.488 146.533 94.7931C160.904 90.225 172.067 78.7552 175.888 64.4054L109.658 54.1175H177.308C177.311 53.9023 177.315 53.6871 177.315 53.4719Z" fill="#FFC833"/>
<path opacity="0.1" d="M4.71885 124.811C7.11264 124.811 9.05318 124.544 9.05318 124.214C9.05318 123.884 7.11264 123.617 4.71885 123.617C2.32507 123.617 0.384521 123.884 0.384521 124.214C0.384521 124.544 2.32507 124.811 4.71885 124.811Z" fill="#FFC833"/>
<path opacity="0.1" d="M21.3224 126.497C23.7162 126.497 25.6567 126.23 25.6567 125.9C25.6567 125.571 23.7162 125.304 21.3224 125.304C18.9286 125.304 16.988 125.571 16.988 125.9C16.988 126.23 18.9286 126.497 21.3224 126.497Z" fill="#FFC833"/>
<path opacity="0.1" d="M40.8807 124.214C43.2745 124.214 45.2151 123.947 45.2151 123.617C45.2151 123.288 43.2745 123.02 40.8807 123.02C38.4869 123.02 36.5464 123.288 36.5464 123.617C36.5464 123.947 38.4869 124.214 40.8807 124.214Z" fill="#FFC833"/>
<path opacity="0.1" d="M14.6765 131.126C16.3787 131.126 17.7586 130.936 17.7586 130.702C17.7586 130.468 16.3787 130.279 14.6765 130.279C12.9744 130.279 11.5945 130.468 11.5945 130.702C11.5945 130.936 12.9744 131.126 14.6765 131.126Z" fill="#FFC833"/>
<path opacity="0.1" d="M31.9114 130.702C33.6136 130.702 34.9934 130.513 34.9934 130.279C34.9934 130.045 33.6136 129.855 31.9114 129.855C30.2092 129.855 28.8293 130.045 28.8293 130.279C28.8293 130.513 30.2092 130.702 31.9114 130.702Z" fill="#FFC833"/>
<path d="M21.4167 125.766C21.4167 125.766 15.3365 105.806 22.3668 97.8111C27.6278 91.829 33.5971 92.5452 36.2712 93.285C36.9632 93.4697 37.6067 93.8027 38.1575 94.2611C38.7082 94.7195 39.1528 95.2923 39.4607 95.9398C40.3957 97.9573 40.2262 101.238 33.6273 105.064C22.5783 111.472 21.8917 120.26 21.8917 120.26L21.4167 125.766Z" fill="#FFC833"/>
<path d="M35.3192 96.1163C35.3192 96.1163 17.3977 101.729 21.4164 125.766" stroke="#565987" stroke-miterlimit="10"/>
<path d="M24.853 98.1288C24.853 98.1288 27.3207 99.7933 26.5317 102.297" stroke="#565987" stroke-miterlimit="10"/>
<path d="M33.5214 99.6084C33.5214 99.6084 32.0106 98.0717 30.1775 98.919" stroke="#565987" stroke-miterlimit="10"/>
<path d="M26.4374 107.342C26.4374 107.342 23.7884 105.997 23.1035 107.679" stroke="#565987" stroke-miterlimit="10"/>
<path d="M19.8821 110.147C19.8821 110.147 21.8713 109.989 21.9082 110.942" stroke="#565987" stroke-miterlimit="10"/>
<path d="M21.1746 125.926C21.1746 125.926 28.2955 111.418 30.2511 111.736C31.1794 111.887 31.6075 112.801 31.8022 113.721C32.0436 114.913 31.908 116.151 31.4145 117.262C30.4073 119.574 27.6845 123.987 21.1746 125.926Z" fill="#FFC833"/>
<path d="M30.1925 114.49C30.1925 114.49 22.719 125.344 21.2754 125.82" stroke="#565987" stroke-miterlimit="10"/>
<path d="M30.8809 116.183H29.1367" stroke="#565987" stroke-miterlimit="10"/>
<path d="M28.791 120.154L26.0581 120.271" stroke="#565987" stroke-miterlimit="10"/>
<path d="M27.1272 116.978L27.4243 118.404" stroke="#565987" stroke-miterlimit="10"/>
<path d="M24.2197 121.319L24.2734 122.615" stroke="#565987" stroke-miterlimit="10"/>
<path d="M21.3812 125.926C21.3812 125.926 14.2603 111.418 12.3046 111.736C11.3763 111.887 10.9483 112.801 10.7535 113.721C10.5141 114.91 10.6502 116.144 11.143 117.252C12.1519 119.574 14.8663 123.987 21.3812 125.926Z" fill="#FFC833"/>
<path d="M12.3584 114.49C12.3584 114.49 19.8318 125.344 21.2755 125.82" stroke="#565987" stroke-miterlimit="10"/>
<path d="M11.6716 116.183H13.4158" stroke="#565987" stroke-miterlimit="10"/>
<path d="M13.7598 120.154L16.4943 120.271" stroke="#565987" stroke-miterlimit="10"/>
<path d="M15.4253 116.978L15.1282 118.404" stroke="#565987" stroke-miterlimit="10"/>
<path d="M18.333 121.319L18.2793 122.615" stroke="#565987" stroke-miterlimit="10"/>
<path d="M33.607 129.314C33.8011 129.155 33.9428 128.942 34.0132 128.702C34.0444 128.581 34.0332 128.453 33.9816 128.339C33.9299 128.226 33.841 128.133 33.7295 128.078C33.4693 127.977 33.1907 128.158 32.9808 128.34C32.771 128.522 32.5276 128.732 32.2523 128.693C32.3928 128.564 32.4976 128.4 32.5564 128.218C32.6152 128.036 32.6261 127.842 32.588 127.654C32.5764 127.576 32.544 127.503 32.494 127.442C32.3496 127.288 32.0878 127.355 31.9149 127.476C31.3643 127.863 31.2115 128.611 31.2081 129.285C31.1779 129.038 31.1745 128.788 31.1981 128.54C31.1981 128.291 31.1276 128.014 30.9177 127.881C30.7879 127.81 30.6411 127.775 30.493 127.78C30.2446 127.78 29.971 127.795 29.8014 127.977C29.5916 128.202 29.6453 128.579 29.8283 128.828C30.0324 129.058 30.2742 129.252 30.5434 129.401C30.7452 129.524 30.9172 129.691 31.047 129.889C31.062 129.916 31.0744 129.946 31.0839 129.976H32.6333C32.9867 129.801 33.3143 129.578 33.607 129.314Z" fill="#FFC833"/>
<path d="M6.47455 123.471C6.66887 123.313 6.81057 123.1 6.88078 122.859C6.91175 122.738 6.9005 122.61 6.84891 122.496C6.79731 122.382 6.70847 122.29 6.59709 122.234C6.33689 122.134 6.05991 122.316 5.8484 122.498C5.63689 122.679 5.39684 122.888 5.11986 122.849C5.26079 122.72 5.36581 122.556 5.42466 122.374C5.48351 122.192 5.49416 121.997 5.45559 121.81C5.44301 121.733 5.40997 121.66 5.35991 121.6C5.21554 121.445 4.95367 121.511 4.78076 121.633C4.23016 122.02 4.0774 122.768 4.07404 123.442C4.0438 123.195 4.04043 122.944 4.06397 122.696C4.06397 122.447 3.99515 122.171 3.78531 122.039C3.65484 121.967 3.50753 121.932 3.35893 121.938C3.11217 121.928 2.83686 121.953 2.66732 122.134C2.45748 122.36 2.51288 122.736 2.69418 122.975C2.89803 123.207 3.14057 123.401 3.41097 123.55C3.61329 123.673 3.78543 123.839 3.91457 124.038C3.92975 124.066 3.94267 124.095 3.95318 124.125H5.50259C5.85469 123.952 6.18167 123.732 6.47455 123.471Z" fill="#FFC833"/>
<path d="M15.5176 129.314C15.7118 129.155 15.8534 128.942 15.9239 128.702C15.955 128.581 15.9439 128.453 15.8922 128.339C15.8406 128.226 15.7516 128.133 15.6402 128.078C15.38 127.977 15.1013 128.158 14.8915 128.34C14.6816 128.522 14.4382 128.732 14.1629 128.693C14.3035 128.564 14.4082 128.4 14.467 128.218C14.5258 128.036 14.5367 127.842 14.4987 127.654C14.4871 127.576 14.4546 127.503 14.4047 127.442C14.2603 127.288 13.9984 127.355 13.8255 127.476C13.2749 127.863 13.1222 128.611 13.1188 129.285C13.0886 129.038 13.0852 128.788 13.1087 128.54C13.1087 128.291 13.0399 128.014 12.8301 127.881C12.6995 127.81 12.5523 127.775 12.4037 127.78C12.1569 127.78 11.8816 127.795 11.7121 127.977C11.5022 128.202 11.5559 128.579 11.7389 128.828C11.943 129.058 12.1849 129.252 12.454 129.401C12.6559 129.524 12.8279 129.691 12.9576 129.889C12.9727 129.916 12.985 129.946 12.9946 129.976H14.544C14.8973 129.801 15.225 129.578 15.5176 129.314Z" fill="#FFC833"/>
<path d="M41.1626 117.502C41.1626 117.502 41.7434 118.264 40.894 119.412C40.0446 120.561 39.3463 121.531 39.6283 122.247C39.6283 122.247 40.9091 120.113 41.9516 120.083C42.994 120.053 42.3091 118.785 41.1626 117.502Z" fill="#FFC833"/>
<path opacity="0.1" d="M41.1627 117.502C41.2132 117.576 41.2534 117.656 41.2819 117.741C42.2991 118.938 42.8397 120.055 41.8627 120.083C40.9512 120.11 39.86 121.741 39.5981 122.153C39.6065 122.185 39.6166 122.215 39.6284 122.247C39.6284 122.247 40.9092 120.113 41.9516 120.083C42.9941 120.053 42.3092 118.785 41.1627 117.502Z" fill="black"/>
<path d="M42.2422 118.472C42.2422 118.74 42.212 118.957 42.1751 118.957C42.1381 118.957 42.1079 118.74 42.1079 118.472C42.1079 118.205 42.1465 118.331 42.1834 118.331C42.2204 118.331 42.2422 118.205 42.2422 118.472Z" fill="#FFD037"/>
<path d="M42.6132 118.792C42.3782 118.92 42.1734 118.997 42.1566 118.96C42.1398 118.923 42.3144 118.792 42.5494 118.669C42.7845 118.546 42.6905 118.634 42.7089 118.669C42.7274 118.705 42.8482 118.664 42.6132 118.792Z" fill="#FFD037"/>
<path d="M38.0943 117.502C38.0943 117.502 37.5134 118.264 38.3628 119.412C39.2122 120.561 39.9122 121.531 39.6286 122.247C39.6286 122.247 38.3477 120.113 37.3053 120.083C36.2628 120.053 36.9544 118.785 38.0943 117.502Z" fill="#FFC833"/>
<path opacity="0.1" d="M38.0943 117.502C38.0439 117.576 38.0043 117.656 37.9767 117.741C36.9595 118.938 36.4173 120.055 37.3942 120.083C38.3058 120.11 39.3986 121.741 39.6605 122.153C39.6504 122.185 39.6403 122.215 39.6286 122.247C39.6286 122.247 38.3477 120.113 37.3053 120.083C36.2628 120.053 36.9544 118.785 38.0943 117.502Z" fill="black"/>
<path d="M37.0149 118.472C37.0149 118.74 37.0451 118.957 37.082 118.957C37.119 118.957 37.1492 118.74 37.1492 118.472C37.1492 118.205 37.1123 118.331 37.0753 118.331C37.0384 118.331 37.0149 118.205 37.0149 118.472Z" fill="#FFD037"/>
<path d="M36.6438 118.792C36.8788 118.92 37.0836 118.997 37.102 118.96C37.1205 118.923 36.9426 118.792 36.7092 118.669C36.4759 118.546 36.5665 118.634 36.5414 118.669C36.5162 118.705 36.4104 118.664 36.6438 118.792Z" fill="#FFD037"/>
<path d="M37.1997 122.146C37.1997 122.146 38.8247 122.097 39.3132 121.748C39.8016 121.398 41.811 120.981 41.9336 121.541C42.0561 122.101 44.3727 124.325 42.5396 124.34C40.7065 124.355 38.2808 124.054 37.7923 123.757C37.3038 123.459 37.1997 122.146 37.1997 122.146Z" fill="#A8A8A8"/>
<path opacity="0.2" d="M42.5731 124.145C40.74 124.16 38.3127 123.859 37.8242 123.562C37.4515 123.335 37.3038 122.521 37.2551 122.144H37.1997C37.1997 122.144 37.3038 123.458 37.7923 123.755C38.2808 124.053 40.7065 124.354 42.5396 124.339C43.07 124.339 43.2513 124.145 43.2412 123.866C43.1657 124.038 42.9659 124.142 42.5731 124.145Z" fill="black"/>
<path opacity="0.1" d="M102.8 136C133.341 136 158.099 134.875 158.099 133.488C158.099 132.101 133.341 130.976 102.8 130.976C72.2596 130.976 47.5015 132.101 47.5015 133.488C47.5015 134.875 72.2596 136 102.8 136Z" fill="#FFC833"/>
<path d="M97.1665 58.3897C97.1665 58.3897 100.692 65.0695 100.965 66.0228C101.037 66.2875 101.19 66.5224 101.404 66.6936C101.618 66.8647 101.88 66.9631 102.154 66.9744C102.154 66.9744 105.666 67.8151 106.505 67.9277C107.344 68.0404 114.62 68.6557 114.62 68.6557C114.62 68.6557 116.466 68.7129 116.689 68.0404C116.894 67.425 120.461 64.1919 122.526 67.0131C122.717 67.2741 122.843 67.5763 122.895 67.8953C122.947 68.2143 122.923 68.5411 122.825 68.8491C122.446 70.0596 121.667 71.9813 120.831 70.7859C119.656 69.1046 118.289 69.5771 118.289 70.4732C118.289 71.3693 116.409 71.0364 115.795 71.1625C115.459 71.2315 114.304 71.5391 113.305 71.8082C112.146 72.122 110.958 72.3197 109.76 72.3983C107.777 72.5277 104.855 72.6353 103.819 72.2436C102.568 71.7678 100.388 71.6585 99.4545 71.6333C99.1453 71.6258 98.8468 71.5185 98.6034 71.3273C97.3079 70.3116 96.2121 69.0637 95.372 67.6469C93.9165 65.125 90.9235 59.9029 91.1249 58.3897C91.3264 56.8766 97.1665 58.3897 97.1665 58.3897Z" fill="#EFB7B9"/>
<path opacity="0.05" d="M97.1665 58.3897C97.1665 58.3897 100.692 65.0695 100.965 66.0228C101.037 66.2875 101.19 66.5224 101.404 66.6936C101.618 66.8647 101.88 66.9631 102.154 66.9744C102.154 66.9744 105.666 67.8151 106.505 67.9277C107.344 68.0404 114.62 68.6557 114.62 68.6557C114.62 68.6557 116.466 68.7129 116.689 68.0404C116.894 67.425 120.461 64.1919 122.526 67.0131C122.717 67.2741 122.843 67.5763 122.895 67.8953C122.947 68.2143 122.923 68.5411 122.825 68.8491C122.446 70.0596 121.667 71.9813 120.831 70.7859C119.656 69.1046 118.289 69.5771 118.289 70.4732C118.289 71.3693 116.409 71.0364 115.795 71.1625C115.459 71.2315 114.304 71.5391 113.305 71.8082C112.146 72.122 110.958 72.3197 109.76 72.3983C107.777 72.5277 104.855 72.6353 103.819 72.2436C102.568 71.7678 100.388 71.6585 99.4545 71.6333C99.1453 71.6258 98.8468 71.5185 98.6034 71.3273C97.3079 70.3116 96.2121 69.0637 95.372 67.6469C93.9165 65.125 90.9235 59.9029 91.1249 58.3897C91.3264 56.8766 97.1665 58.3897 97.1665 58.3897Z" fill="black"/>
<path d="M151.341 120.961C151.335 124.533 149.952 127.966 147.482 130.543C145.012 133.12 141.644 134.643 138.08 134.795C134.516 134.947 131.031 133.715 128.352 131.357C125.672 128.999 124.004 125.697 123.695 122.138C123.675 121.912 123.66 121.687 123.653 121.465V121.453C123.646 121.286 123.643 121.118 123.643 120.949C123.643 117.27 125.102 113.742 127.699 111.141C130.296 108.54 133.819 107.078 137.492 107.078C141.165 107.078 144.687 108.54 147.285 111.141C149.882 113.742 151.341 117.27 151.341 120.949V120.961Z" fill="#65617D"/>
<path d="M137.492 128.518C141.664 128.518 145.046 125.131 145.046 120.952C145.046 116.774 141.664 113.387 137.492 113.387C133.32 113.387 129.938 116.774 129.938 120.952C129.938 125.131 133.32 128.518 137.492 128.518Z" fill="#DCE0ED"/>
<path d="M137.491 125.492C139.995 125.492 142.024 123.46 142.024 120.952C142.024 118.445 139.995 116.413 137.491 116.413C134.988 116.413 132.959 118.445 132.959 120.952C132.959 123.46 134.988 125.492 137.491 125.492Z" fill="#65617D"/>
<path d="M101.121 94.6116L67.7729 95.2841V90.3613C68.0718 86.3984 72.1375 85.008 75.8306 84.5726C78.7179 84.2443 81.6411 84.4639 84.4472 85.2198C91.5228 87.0962 96.03 87.4593 98.2509 87.4946C98.7384 87.502 99.2084 87.6776 99.5816 87.9919C99.9547 88.3062 100.208 88.7399 100.299 89.2197C100.405 89.7829 100.509 90.3966 100.606 91.0018C100.68 91.476 100.75 91.9434 100.814 92.3788C100.999 93.6331 101.121 94.6116 101.121 94.6116Z" fill="#65617D"/>
<path d="M127.727 121.849H58.4497C57.9148 121.854 57.3902 121.702 56.941 121.411C56.4918 121.12 56.1379 120.703 55.9233 120.213C55.4012 118.963 56.1314 118.166 56.9103 117.699C58.5044 116.753 59.7127 115.272 60.3214 113.519C61.06 111.334 61.7818 107.914 62.0655 102.571C62.3576 97.0444 64.3552 94.3123 66.514 92.9874C69.3023 91.2792 72.3592 91.9198 72.3592 91.9198L100.448 92.1451C100.948 92.3722 101.411 92.6744 101.82 93.0412C104.323 95.3748 100.673 98.4213 100.673 98.4213C92.839 106.715 98.7697 115.122 98.7697 115.122H113.142C115.828 115.136 118.454 114.33 120.671 112.813C122.614 111.468 123.357 110.169 123.656 109.382C123.878 108.78 124.103 108.18 124.371 107.598C128.141 99.4083 123.594 86.0857 121.632 81.104C121.145 79.8649 120.817 79.1419 120.817 79.1419L125.325 78.8057L128.178 78.5888H128.207C134.488 89.4399 136.824 100.59 137.607 108.852C137.681 109.631 137.742 110.385 137.79 111.11C137.879 112.488 137.685 113.869 137.219 115.169C136.754 116.468 136.027 117.658 135.083 118.665C134.14 119.671 133 120.473 131.735 121.021C130.469 121.569 129.105 121.85 127.727 121.849Z" fill="#FFC833"/>
<path opacity="0.1" d="M100.816 92.3788H67.7729V91.0018H100.608C100.682 91.4675 100.752 91.9349 100.816 92.3788Z" fill="black"/>
<path opacity="0.1" d="M101.822 93.0513H66.7811C66.69 93.0516 66.5997 93.0333 66.5159 92.9975C69.3041 91.2893 72.361 91.9299 72.361 91.9299L100.45 92.1551C100.95 92.3823 101.413 92.6845 101.822 93.0513Z" fill="black"/>
<path d="M102.114 91.3297H54.5198C54.1406 91.3297 53.8333 91.6375 53.8333 92.0173V92.019C53.8333 92.3988 54.1406 92.7066 54.5198 92.7066H102.114C102.493 92.7066 102.8 92.3988 102.8 92.019V92.0173C102.8 91.6375 102.493 91.3297 102.114 91.3297Z" fill="#DCE0ED"/>
<path opacity="0.1" d="M137.607 108.856C136.011 110.594 134.836 111.278 134.891 109.444C135.059 103.896 125.323 78.8107 125.323 78.8107L128.202 78.5922C134.485 89.4348 136.822 100.585 137.607 108.856Z" fill="black"/>
<path opacity="0.1" d="M151.257 119.433C149.603 119.829 147.564 120.233 145.046 120.609C144.109 120.747 143.102 120.88 142.024 121.006C139.451 121.312 136.474 121.58 133.036 121.785C132.063 121.843 131.052 121.896 130.003 121.944C128.039 122.034 125.937 122.102 123.696 122.149L123.654 121.477V121.465C126.785 120.199 131.712 116.821 132.504 108.023C134.483 107.26 136.61 106.961 138.722 107.15C140.834 107.34 142.874 108.012 144.686 109.115C146.498 110.219 148.032 111.724 149.172 113.515C150.311 115.306 151.025 117.335 151.258 119.446L151.257 119.433Z" fill="black"/>
<path d="M121.042 121.849C121.042 121.849 136.939 120.12 131.463 95.8607C131.463 95.8607 139.318 103.074 144.205 107.082C149.091 111.09 157.802 116.616 157.802 116.616C157.802 116.616 152.601 121.484 121.042 121.849Z" fill="#FFC833"/>
<path opacity="0.1" d="M121.042 121.849C121.042 121.849 136.939 120.12 131.463 95.8607C131.463 95.8607 139.318 103.074 144.205 107.082C149.091 111.09 157.802 116.616 157.802 116.616C157.802 116.616 152.601 121.484 121.042 121.849Z" fill="white"/>
<path d="M78.5719 134.823C86.2206 134.823 92.421 128.613 92.421 120.952C92.421 113.292 86.2206 107.082 78.5719 107.082C70.9233 107.082 64.7229 113.292 64.7229 120.952C64.7229 128.613 70.9233 134.823 78.5719 134.823Z" fill="#65617D"/>
<path d="M78.5721 128.518C82.7441 128.518 86.1261 125.131 86.1261 120.952C86.1261 116.774 82.7441 113.387 78.5721 113.387C74.4001 113.387 71.0181 116.774 71.0181 120.952C71.0181 125.131 74.4001 128.518 78.5721 128.518Z" fill="#DCE0ED"/>
<path d="M78.572 125.492C81.0751 125.492 83.1044 123.46 83.1044 120.952C83.1044 118.445 81.0751 116.413 78.572 116.413C76.0688 116.413 74.0396 118.445 74.0396 120.952C74.0396 123.46 76.0688 125.492 78.572 125.492Z" fill="#65617D"/>
<path opacity="0.1" d="M94.0997 116.786C94.0997 107.83 86.9972 100.568 78.2362 100.568C69.4753 100.568 62.3728 107.83 62.3728 116.786C62.3728 117.165 62.3857 117.54 62.4114 117.911H94.0611C94.0868 117.54 94.0997 117.165 94.0997 116.786Z" fill="black"/>
<path d="M93.5123 116.507C93.5123 107.882 86.6734 100.89 78.2364 100.89C69.7994 100.89 62.9604 107.882 62.9604 116.507C62.9604 116.872 62.9739 117.232 62.9974 117.59H93.4753C93.4988 117.232 93.5123 116.872 93.5123 116.507Z" fill="#FFC833"/>
<path opacity="0.1" d="M93.5123 116.507C93.5123 116.758 93.5123 117.011 93.4938 117.254C93.4938 117.366 93.4821 117.477 93.4753 117.59H62.9974C62.9974 117.477 62.9839 117.366 62.9789 117.254C62.9672 117.006 62.9604 116.749 62.9604 116.507C62.9604 107.882 69.7994 100.89 78.2364 100.89C86.6734 100.89 93.5123 107.882 93.5123 116.507Z" fill="white"/>
<path opacity="0.1" d="M93.4937 117.262C93.4937 117.375 93.4819 117.486 93.4752 117.598H62.9972C62.9972 117.486 62.9838 117.375 62.9788 117.262H93.4937Z" fill="black"/>
<path opacity="0.1" d="M95.5266 117.926H58.0687C57.0795 117.926 56.2776 118.729 56.2776 119.719C56.2776 120.709 57.0795 121.512 58.0687 121.512H95.5266C96.5159 121.512 97.3178 120.709 97.3178 119.719C97.3178 118.729 96.5159 117.926 95.5266 117.926Z" fill="black"/>
<path d="M95.5266 117.59H58.0687C57.0795 117.59 56.2776 118.393 56.2776 119.383C56.2776 120.373 57.0795 121.176 58.0687 121.176H95.5266C96.5159 121.176 97.3178 120.373 97.3178 119.383C97.3178 118.393 96.5159 117.59 95.5266 117.59Z" fill="#DCE0ED"/>
<path opacity="0.1" d="M134.875 94.2003C135.887 93.742 135.774 91.3018 134.622 88.75C133.47 86.1982 131.716 84.5011 130.704 84.9594C129.692 85.4177 129.805 87.8579 130.957 90.4097C132.109 92.9615 133.863 94.6586 134.875 94.2003Z" fill="black"/>
<path d="M135.043 94.0316C136.055 93.5733 135.942 91.1331 134.79 88.5813C133.638 86.0295 131.884 84.3324 130.872 84.7907C129.859 85.249 129.973 87.6892 131.125 90.241C132.277 92.7928 134.031 94.4899 135.043 94.0316Z" fill="#DCE0ED"/>
<path opacity="0.1" d="M128.177 78.5922V81.2267H123.057C122.58 81.2272 122.104 81.189 121.633 81.1124C121.146 79.8733 120.819 79.1504 120.819 79.1504L125.326 78.8141L128.177 78.5922Z" fill="black"/>
<path d="M128.177 80.8837H123.057C118.56 80.8837 114.915 77.5211 114.915 73.3566V72.6588C114.915 68.5027 118.56 65.1334 123.057 65.1334L128.177 65.5991V80.8837Z" fill="#FFC833"/>
<path d="M119.742 69.5888C119.742 69.5888 122.805 71.2281 121.043 74.0022C121.043 74.0022 118.88 77.5531 115.481 77.2169L114.244 69.5888C114.244 69.5888 118.315 69.2106 119.742 69.5888Z" fill="#FFC833"/>
<path opacity="0.1" d="M118.565 69.4409C119.052 69.4594 119.528 69.5871 119.959 69.8147C120.391 70.0422 120.765 70.3638 121.056 70.7557C121.601 71.5123 121.927 72.6152 121.046 74.0023C121.046 74.0023 118.884 77.5531 115.484 77.2169L114.247 69.5889C114.247 69.5889 116.794 69.3451 118.565 69.4409Z" fill="black"/>
<path opacity="0.1" d="M128.009 65.5991H128.996C129.825 65.5991 130.62 65.9289 131.206 66.516C131.792 67.1031 132.122 67.8994 132.122 68.7297V77.7549C132.122 78.5852 131.792 79.3814 131.206 79.9685C130.62 80.5556 129.825 80.8854 128.996 80.8854H128.009V65.5991Z" fill="black"/>
<path d="M128.177 65.5991H129.164C129.993 65.5991 130.788 65.9289 131.374 66.516C131.96 67.1031 132.29 67.8994 132.29 68.7297V77.7549C132.29 78.5852 131.96 79.3814 131.374 79.9685C130.788 80.5556 129.993 80.8854 129.164 80.8854H128.177V65.5991Z" fill="#DCE0ED"/>
<path d="M91.8269 85.2299C91.8269 85.2299 92.6176 85.5191 93.6734 85.9226C95.3521 86.5699 97.719 87.5148 98.5416 88.0327C99.3641 88.5505 102.431 89.4012 104.727 89.9998C106.43 90.4415 108.183 90.6579 109.941 90.6437C111.728 90.6269 113.891 90.6101 114.489 90.6101C114.594 90.6092 114.698 90.6171 114.801 90.6336C115.429 90.7379 115.404 91.1599 115.389 91.2607V91.2826C111.696 93.5238 107.219 103.556 106.94 105.237C106.73 106.498 104.885 109.994 103.975 111.665C103.67 112.225 103.472 112.58 103.472 112.58L104.592 113.867L107.836 115.325L110.913 116.67C110.913 116.67 114.16 116.838 114.215 116.67C114.271 116.502 114.271 114.765 114.271 114.765C113.876 114.51 113.501 114.224 113.149 113.911C112.405 113.262 111.713 112.554 111.081 111.794C109.292 109.664 112.872 105.574 112.872 105.574L119.755 96.6073C119.755 96.6073 120.314 95.5985 123 91.5634C125.686 87.5283 123 85.3426 123 85.3426L118.273 83.3772C110.074 80.3038 100.185 77.8407 100.185 77.8407L100.044 77.8222L97.9473 77.5599L91.8269 85.2299Z" fill="#EFB7B9"/>
<path d="M112.949 115.325C112.949 115.325 113.537 116.019 113.097 116.082C112.657 116.144 111.502 115.893 111.502 115.893L104.178 112.026C104.178 112.026 103.381 111.458 103.193 112.573C103.005 113.688 102.877 113.582 102.877 113.582C102.877 113.582 101.912 115.661 102.877 116.092C103.842 116.522 109.641 118.225 109.641 118.225C109.641 118.225 118.056 120.139 118.853 117.931C119.651 115.724 117.426 116.104 117.426 116.104C117.426 116.104 114.656 115.431 113.711 114.086C113.705 114.086 112.342 114.464 112.949 115.325Z" fill="#444053"/>
<path opacity="0.05" d="M122.993 85.3426L118.266 83.3772C110.067 80.3038 100.178 77.8407 100.178 77.8407L100.037 77.8222L97.9406 77.5599L91.8269 85.2299C91.8269 85.2299 92.6176 85.5191 93.6734 85.9226C95.3521 86.5699 97.719 87.5148 98.5416 88.0327C99.3641 88.5505 102.431 89.4012 104.727 89.9998C106.43 90.4415 108.183 90.6579 109.941 90.6437C111.728 90.6269 113.891 90.6101 114.489 90.6101C114.594 90.6092 114.698 90.6171 114.801 90.6336C115.429 90.7379 115.404 91.1599 115.389 91.2607V91.2826C111.696 93.5238 107.219 103.556 106.94 105.237C106.73 106.498 104.885 109.994 103.975 111.665L103.853 111.89C103.609 111.85 103.306 111.937 103.198 112.573C103.009 113.686 102.883 113.582 102.883 113.582C102.883 113.582 101.917 115.661 102.883 116.092C103.848 116.522 109.641 118.225 109.641 118.225C109.641 118.225 118.056 120.139 118.854 117.931C119.651 115.724 117.427 116.104 117.427 116.104C117.427 116.104 114.657 115.431 113.712 114.086C113.628 114.11 113.546 114.141 113.467 114.177C113.368 114.096 113.262 114.009 113.149 113.911C112.405 113.262 111.713 112.554 111.081 111.794C109.292 109.664 112.872 105.574 112.872 105.574L119.755 96.6073C119.755 96.6073 120.314 95.5985 123 91.5634C125.686 87.5283 122.993 85.3426 122.993 85.3426Z" fill="black"/>
<path d="M86.1897 47.7337L86.4449 48.0565L86.5875 48.2364L87.4772 49.3578C87.4772 49.3578 89.6008 50.0404 91.4624 50.4826C93.4013 50.9416 95.0548 51.1416 93.7404 50.0438C92.9245 49.3628 92.8708 48.2229 93.1679 47.0006C93.4182 46.06 93.7764 45.1517 94.2356 44.2937C94.3016 44.166 94.3671 44.0415 94.432 43.9205C94.8489 43.1481 95.3108 42.4009 95.8152 41.6827C94.6217 40.8549 93.3838 40.0932 92.107 39.4012C90.5693 38.6042 89.307 38.2562 90.1077 39.8333C90.6214 40.842 90.4535 41.9752 89.9734 43.0597C89.9365 43.1454 89.8962 43.2278 89.8542 43.3169C89.4232 44.1572 88.8911 44.9415 88.2696 45.6522C87.6328 46.4005 86.9373 47.0965 86.1897 47.7337Z" fill="#EFB7B9"/>
<path d="M96.8225 73.3448L97.9606 74.3856L99.0602 78.6224H97.2254L95.1992 75.9828L96.8225 73.3448Z" fill="#444053"/>
<path opacity="0.1" d="M95.1992 75.9828L96.4247 77.5784L97.2254 78.6224H99.0602L98.8722 77.8978L98.0714 74.8109L97.9606 74.3856L96.8225 73.3448L95.2681 75.8702L95.1992 75.9828Z" fill="black"/>
<path opacity="0.1" d="M95.1992 75.9828L96.4247 77.5784L97.2254 78.6224H99.0602L98.8722 77.8978L98.0714 74.8109L97.9606 74.3856L96.8225 73.3448L95.2681 75.8702L95.1992 75.9828Z" fill="black"/>
<path d="M89.1006 87.1315C89.1006 87.1315 89.8912 87.4206 90.9471 87.8241C92.6258 88.4714 94.9927 89.4163 95.8153 89.9342C96.6378 90.452 99.7047 91.3027 102.001 91.9013C103.704 92.3435 105.456 92.5606 107.215 92.5469C109.001 92.5301 111.165 92.5133 111.763 92.5133C111.867 92.5124 111.972 92.5203 112.075 92.5368C112.703 92.6411 112.678 93.0631 112.662 93.1639V93.1858C108.969 95.427 104.492 105.459 104.214 107.141C104.004 108.402 102.159 111.897 101.249 113.568C100.944 114.128 100.746 114.483 100.746 114.483L101.865 115.771L105.108 117.227L108.185 118.572C108.185 118.572 111.432 118.74 111.487 118.572C111.543 118.404 111.543 116.667 111.543 116.667C111.148 116.411 110.773 116.126 110.421 115.813C109.677 115.163 108.985 114.455 108.353 113.696C106.564 111.566 110.144 107.475 110.144 107.475L117.027 98.5088C117.027 98.5088 117.586 97.5 120.272 93.4649C122.958 89.4298 120.272 87.2441 120.272 87.2441L115.964 84.7776C109.25 80.687 99.792 78.3332 99.792 78.3332L99.651 78.3147L97.5544 78.0525L89.1006 87.1315Z" fill="#EFB7B9"/>
<path opacity="0.1" d="M100.744 114.481L101.863 115.769L105.108 117.227L108.185 118.572C108.185 118.572 111.432 118.74 111.487 118.572C111.543 118.404 111.543 116.667 111.543 116.667C111.147 116.411 110.773 116.126 110.421 115.813C110.074 115.999 109.679 116.349 110.06 116.89C110.06 116.89 110.648 117.583 110.208 117.647C109.768 117.711 108.613 117.459 108.613 117.459L101.289 113.592L101.247 113.563C100.938 114.126 100.744 114.481 100.744 114.481Z" fill="black"/>
<path d="M110.223 117.227C110.223 117.227 110.811 117.919 110.369 117.983C109.928 118.047 108.775 117.793 108.775 117.793L101.452 113.926C101.452 113.926 100.655 113.36 100.465 114.473C100.275 115.586 100.151 115.481 100.151 115.481C100.151 115.481 99.1859 117.563 100.151 117.993C101.116 118.424 106.908 120.12 106.908 120.12C106.908 120.12 115.321 122.032 116.119 119.826C116.916 117.62 114.692 117.997 114.692 117.997C114.692 117.997 111.922 117.324 110.979 115.979C110.984 115.986 109.614 116.364 110.223 117.227Z" fill="#444053"/>
<path opacity="0.1" d="M89.5469 42.6326C90.5171 43.3051 91.9977 44.3694 93.2618 44.3694C93.5878 44.3693 93.9134 44.3435 94.2354 44.2921C94.7029 43.3872 95.2306 42.5149 95.815 41.681C95.815 41.681 88.4289 36.5245 90.1076 39.8316C90.6615 40.9312 90.1159 41.4709 89.5469 42.6326Z" fill="black"/>
<path d="M87.2188 37.9804C87.2179 38.9899 87.4696 39.9834 87.9508 40.8704C88.432 41.7573 89.1274 42.5094 89.9735 43.058C90.1634 43.182 90.3607 43.2943 90.5643 43.3942C91.7406 43.9819 93.0762 44.1695 94.3685 43.9284C95.6608 43.6873 96.8394 43.0308 97.7256 42.0583C98.6118 41.0859 99.1572 39.8505 99.2791 38.5396C99.4011 37.2287 99.093 35.9137 98.4014 34.794C97.7099 33.6743 96.6727 32.811 95.4471 32.3349C94.2215 31.8589 92.8744 31.796 91.6099 32.1559C90.3455 32.5159 89.2327 33.2789 88.4402 34.3294C87.6478 35.3799 87.219 36.6605 87.2188 37.9771V37.9804Z" fill="#EFB7B9"/>
<path opacity="0.1" d="M89.1006 87.1315C89.1006 87.1315 89.8912 87.4206 90.9471 87.8241C91.6102 87.2391 92.2901 86.6741 92.5738 86.5716C93.1898 86.3463 95.2042 85.1694 95.1488 84.8331C95.0934 84.4969 95.9882 83.209 96.7704 82.9837C97.5527 82.7584 97.1062 81.5832 97.1062 81.5832C97.1062 81.5832 98.617 81.0233 98.993 80.2381C99.369 79.453 100.521 78.4442 100.128 78.5014C99.9575 78.4737 99.795 78.41 99.651 78.3147L97.5544 78.0525L89.1006 87.1315Z" fill="black"/>
<path d="M84.5112 85.1139C84.5112 85.1139 87.0862 87.2441 87.2054 88.1957C87.3246 89.1473 89.0436 89.0935 89.0436 89.0935C89.0436 89.0935 91.6187 86.6271 92.2331 86.4035C92.8475 86.1799 94.8636 85.0013 94.8082 84.665C94.7528 84.3287 95.6475 83.0409 96.4297 82.8156C97.212 82.5903 96.7655 81.4151 96.7655 81.4151C96.7655 81.4151 98.2763 80.8552 98.6523 80.07C99.0283 79.2848 100.18 78.2761 99.7871 78.3332C99.6763 78.3484 99.3221 78.1651 98.8722 77.8978C98.3199 77.5615 97.6199 77.1059 97.0492 76.7209C96.4449 76.3106 95.9832 75.9845 95.9832 75.9845C95.9832 75.9845 95.7197 75.9374 95.2681 75.8718C92.8324 75.5187 84.8989 74.6176 83.0574 77.5531C82.812 77.9411 82.6279 78.3647 82.5119 78.809C81.6876 81.9363 84.5112 85.1139 84.5112 85.1139Z" fill="#444053"/>
<path opacity="0.1" d="M87.2035 78.3181C87.2035 78.3181 84.5747 79.8044 83.5944 79.8044C82.614 79.8044 87.2035 78.3181 87.2035 78.3181Z" fill="black"/>
<path opacity="0.1" d="M88.9598 79.453C88.9598 79.453 85.0452 80.7711 85.0452 81.8068C85.0452 82.8425 84.6792 79.0327 88.9598 79.453Z" fill="black"/>
<path opacity="0.1" d="M98.3316 73.5163L98.2759 73.5925C98.3013 73.5729 98.3206 73.5465 98.3316 73.5163Z" fill="black"/>
<path opacity="0.1" d="M86.1897 47.7337L86.4449 48.0565L86.5875 48.2364L87.4772 49.3578C87.4772 49.3578 89.6008 50.0404 91.4624 50.4826C93.4013 50.9416 95.0548 51.1417 93.7404 50.0438C92.9245 49.3628 92.8708 48.2229 93.1679 47.0006L93.1092 46.925C93.1092 46.925 93.1679 48.0582 92.4981 48.08C91.595 48.1086 91.5833 47.8043 90.7506 47.4529C89.678 46.9989 88.5784 46.2407 88.2696 45.6505C87.6329 46.3994 86.9374 47.096 86.1897 47.7337Z" fill="black"/>
<path opacity="0.1" d="M82.512 78.804C82.9699 79.0001 83.4857 79.0121 83.9523 78.8377C85.6863 78.2761 88.4293 76.9243 89.7151 77.5161C90.7458 77.9903 94.8972 77.9768 96.4298 77.5784C96.8109 77.4792 97.0291 77.3564 96.9955 77.2118C96.9739 77.0453 96.9941 76.876 97.0543 76.7192C97.2322 76.1493 97.7157 75.3574 98.0766 74.8109L97.9658 74.3856L96.8277 73.3448L95.2732 75.8668C92.8375 75.5137 84.9041 74.6125 83.0626 77.5481C82.8153 77.9357 82.6296 78.3594 82.512 78.804Z" fill="black"/>
<path d="M81.3785 77.4926C81.3785 77.4926 82.05 79.0612 83.7841 78.5014C85.5181 77.9415 88.2611 76.588 89.547 77.1799C90.8328 77.7717 96.9902 77.6035 96.8223 76.8755C96.6545 76.1475 98.3331 73.8492 98.3331 73.8492C98.3331 73.8492 97.4166 73.6811 96.8492 70.6833C96.7652 70.2462 96.6897 69.7485 96.6259 69.1836C96.4873 68.0267 96.4547 66.8595 96.5286 65.6966C96.7552 62.4517 97.89 61.1269 97.89 61.1269C97.89 61.1269 99.4562 59.3346 98.1132 56.8681C97.4099 55.5752 94.5712 51.9924 94.5326 50.3952C94.4974 48.9459 93.1141 47.2612 93.1141 47.2612C93.1141 47.2612 93.1729 48.3944 92.5031 48.4163C91.6 48.4448 91.5882 48.1405 90.7556 47.7891C89.5319 47.2713 88.2745 46.3584 88.1923 45.748C88.1923 45.748 83.0622 45.4908 81.9426 50.7028C80.8229 55.9148 81.2157 58.773 81.3836 59.3901C81.5514 60.0071 83.0052 67.9647 81.8301 71.3273C80.655 74.6899 81.3785 77.4926 81.3785 77.4926Z" fill="#A36468"/>
<path opacity="0.1" d="M89.7436 68.3363C90.6688 69.8996 91.9067 71.2545 93.3796 72.3159C94.3619 72.3241 95.3428 72.3898 96.3173 72.5126C96.2334 72.0755 96.1494 71.5778 96.094 71.0129C95.9554 69.856 95.9228 68.6888 95.9967 67.5259C95.8355 67.4449 95.6935 67.3305 95.58 67.1902C95.4665 67.0498 95.3842 66.8869 95.3386 66.7122C95.0583 65.7589 92.5621 61.2194 92.5621 61.2194C92.5621 61.2194 86.722 59.7062 86.5189 61.2194C86.3158 62.7325 88.2882 65.8143 89.7436 68.3363Z" fill="black"/>
<path d="M91.6789 58.3897C91.6789 58.3897 95.2041 65.0695 95.4777 66.0228C95.5489 66.2875 95.7026 66.5224 95.9163 66.6936C96.1301 66.8647 96.3928 66.9631 96.6662 66.9744C96.6662 66.9744 100.178 67.8151 101.017 67.9277C101.857 68.0404 109.137 68.6557 109.137 68.6557C109.137 68.6557 110.984 68.7129 111.207 68.0404C111.412 67.425 114.979 64.1919 117.044 67.0131C117.234 67.2741 117.36 67.5763 117.412 67.8953C117.464 68.2143 117.44 68.5411 117.342 68.8491C116.963 70.0596 116.184 71.9813 115.348 70.7859C114.173 69.1046 112.807 69.5771 112.807 70.4732C112.807 71.3693 110.927 71.0364 110.312 71.1625C109.976 71.2315 108.821 71.5391 107.823 71.8082C106.661 72.1225 105.47 72.3202 104.269 72.3983C102.286 72.5277 99.3638 72.6353 98.3281 72.2436C97.0792 71.7678 94.8986 71.6585 93.9635 71.6333C93.6543 71.6258 93.3558 71.5185 93.1125 71.3273C91.8175 70.3115 90.7224 69.0635 89.8827 67.6469C88.4273 65.125 85.4342 59.9029 85.6357 58.3897C85.8371 56.8766 91.6789 58.3897 91.6789 58.3897Z" fill="#EFB7B9"/>
<path opacity="0.1" d="M90.5038 49.1342C90.5038 49.1342 92.3923 52.2732 93.2669 54.5143C94.1415 56.7555 95.2041 60.6796 95.2041 60.6796L89.9432 60.0626L89.4966 59.3346C89.4966 59.3346 85.7398 61.6884 86.188 62.6972C86.6362 63.706 85.1808 61.184 85.2933 58.3258C85.4057 55.4676 84.8887 50.3666 85.2933 49.1342C85.6978 47.9018 89.2667 48.1809 90.5038 49.1342Z" fill="black"/>
<path d="M85.3 57.9895C85.1875 60.8477 86.6429 63.3697 86.1947 62.3609C85.7465 61.3521 89.5034 58.9983 89.5034 58.9983L89.9449 59.7263L95.2042 60.3434C95.2042 60.3434 94.1416 56.4192 93.267 54.178C92.7416 52.9101 92.1407 51.675 91.4674 50.4792C90.9286 49.499 90.5039 48.7979 90.5039 48.7979C89.7804 48.238 88.2444 47.9102 87.019 47.9875C86.828 47.9984 86.6379 48.0214 86.4499 48.0564C85.9463 48.1556 85.54 48.3473 85.3604 48.6499C85.333 48.6968 85.3105 48.7464 85.2933 48.7979C84.8904 50.0303 85.4074 55.1313 85.3 57.9895Z" fill="#A36468"/>
<path opacity="0.1" d="M82.95 65.8143C82.95 65.8143 85.1742 68.8827 85.8457 68.9668C85.8406 68.9735 82.9869 68.3363 82.95 65.8143Z" fill="black"/>
<path opacity="0.1" d="M82.95 70.1857C82.95 70.1857 87.1466 74.431 88.4896 74.473C89.8325 74.515 82.95 70.1857 82.95 70.1857Z" fill="black"/>
<path opacity="0.1" d="M82.9498 71.9578C82.9498 71.9578 85.6356 75.1102 85.8035 75.1102C85.9714 75.1102 82.9028 74.0174 82.9498 71.9578Z" fill="black"/>
<path opacity="0.1" d="M85.3555 48.6499C85.7872 48.5855 86.2043 48.4455 86.5876 48.2363C86.732 48.1607 86.8747 48.0766 87.014 47.9875C87.5644 47.6186 88.0772 47.1962 88.5449 46.7265C89.3171 45.975 90.0876 45.1545 90.4066 44.1239C90.4783 43.8863 90.5311 43.6435 90.5644 43.3976C90.7557 42.1047 90.5946 40.6772 91.5179 39.7979C91.6913 39.6339 91.8904 39.4993 92.1071 39.3994C93.4164 38.7757 95.315 39.1792 96.292 38.0544C96.9131 37.3415 96.898 36.3513 97.3747 35.5762C97.5829 35.2399 97.9656 34.9491 98.3047 34.6397C97.8109 33.8868 97.1555 33.2537 96.3863 32.7867C95.6171 32.3198 94.7535 32.0307 93.8586 31.9405C92.9636 31.8504 92.0599 31.9615 91.2132 32.2657C90.3666 32.5698 89.5984 33.0595 88.9648 33.6989C88.3311 34.3382 87.848 35.1112 87.5505 35.9614C87.2531 36.8116 87.1489 37.7176 87.2456 38.6132C87.3422 39.5089 87.6373 40.3716 88.1092 41.1385C88.5812 41.9054 89.2181 42.5572 89.9735 43.0462C89.9366 43.1319 89.8963 43.2143 89.8543 43.3034C88.7011 45.6572 86.1898 47.7219 86.1898 47.7219L86.4449 48.0447C85.9363 48.1607 85.5351 48.3473 85.3555 48.6499Z" fill="black"/>
<path d="M95.9563 37.8897C94.8199 39.1944 92.4311 38.4344 91.1805 39.6298C90.0827 40.6773 90.5191 42.5048 90.0709 43.9558C89.752 44.9864 88.9815 45.8052 88.2093 46.5584C87.0846 47.6546 85.6459 48.7677 84.1083 48.4533C83.1968 48.2666 82.3037 47.584 81.4224 47.8984C80.9843 48.0565 80.6704 48.4364 80.343 48.771C79.2311 49.9059 77.7858 50.6547 76.2185 50.9079C75.9086 50.978 75.5856 50.9629 75.2835 50.8642C74.8135 50.6726 74.56 50.1581 74.1319 49.884C73.2926 49.346 72.2149 49.8975 71.3436 50.3783C68.9071 51.6997 66.2175 52.4861 63.4539 52.6852C60.6903 52.8844 57.916 52.4917 55.3157 51.5334L56.6737 50.8609C56.385 50.2707 55.6044 50.1413 55.1075 49.7092C54.0835 48.8198 54.6862 47.041 55.7689 46.2255C56.8517 45.4101 58.2534 45.126 59.3747 44.3643C59.603 44.2097 59.8347 44.0045 59.8565 43.7305C59.8528 43.5292 59.7891 43.3336 59.6735 43.1689C59.0759 42.1148 58.4145 40.9833 58.5488 39.7778C58.7536 37.9283 60.7697 36.7918 62.6213 36.6623C64.4728 36.5329 66.306 37.0911 68.1609 37.123C68.8324 37.1348 69.5357 37.0692 70.1115 36.7212C70.9156 36.237 71.3202 35.3139 71.8086 34.512C72.6806 33.088 73.93 31.9344 75.4178 31.1796C77.0965 30.3306 78.9967 30.033 80.7425 29.3302C82.5253 28.614 84.1469 27.4808 86.0119 27.0251C88.7196 26.3526 91.6203 27.2319 93.9587 28.7518C95.0851 29.4832 98.6825 31.8303 98.659 33.3317C98.6405 34.2228 97.4839 34.7053 97.0458 35.4047C96.5623 36.1865 96.5774 37.1768 95.9563 37.8897Z" fill="#965D7B"/>
<g opacity="0.1">
<path opacity="0.1" d="M59.5089 42.3266C59.6237 42.4917 59.6873 42.687 59.6919 42.8882C59.6852 42.9591 59.6653 43.0281 59.6332 43.0916C59.1396 42.2207 58.626 41.2977 58.5437 40.3259C58.7619 41.0202 59.1463 41.6877 59.5089 42.3266Z" fill="black"/>
<path opacity="0.1" d="M54.9431 48.8668C55.4383 49.2989 56.2189 49.4284 56.5093 50.0185L56.0292 50.2573C55.7057 50.1049 55.3981 49.9207 55.111 49.7075C54.9289 49.545 54.7869 49.3425 54.696 49.1159C54.6052 48.8892 54.5679 48.6446 54.5872 48.4011C54.6728 48.5791 54.7939 48.7376 54.9431 48.8668Z" fill="black"/>
<path opacity="0.1" d="M71.1792 49.5377C72.0504 49.0568 73.1298 48.5054 73.9675 49.0434C74.3938 49.3174 74.649 49.8319 75.119 50.0236C75.4205 50.1222 75.743 50.1373 76.0524 50.0673C77.6201 49.8141 79.066 49.0653 80.1785 47.9303C80.5042 47.5941 80.8181 47.2158 81.2579 47.0578C82.1342 46.7434 83.0272 47.426 83.9438 47.6126C85.4815 47.927 86.9184 46.814 88.0448 45.7178C88.817 44.9662 89.5858 44.1457 89.9048 43.1151C90.3546 41.6642 89.9182 39.8366 91.016 38.7891C92.27 37.5937 94.6537 38.3537 95.7919 37.049C96.4113 36.3361 96.3979 35.3459 96.8746 34.5708C97.2775 33.9167 98.3216 33.4527 98.4693 32.6642C98.5847 32.87 98.6487 33.1008 98.6557 33.3367C98.6372 34.2278 97.4806 34.7103 97.0425 35.4097C96.5657 36.1848 96.5792 37.1751 95.9597 37.888C94.8216 39.1927 92.4345 38.4327 91.1839 39.6281C90.0861 40.6756 90.5225 42.5031 90.0726 43.9541C89.7537 44.9847 88.9848 45.8035 88.2127 46.5567C87.0863 47.6529 85.6493 48.766 84.1117 48.4516C83.1985 48.2649 82.3054 47.5823 81.4258 47.8967C80.986 48.0548 80.6721 48.4347 80.3464 48.7693C79.2338 49.9042 77.788 50.653 76.2202 50.9062C75.9109 50.9763 75.5884 50.9612 75.2869 50.8625C74.8169 50.6709 74.5617 50.1564 74.1353 49.8823C73.296 49.3443 72.2183 49.8958 71.347 50.3766C68.9105 51.698 66.2209 52.4844 63.4573 52.6835C60.6937 52.8827 57.9194 52.49 55.3191 51.5317L56.2575 51.066C58.7227 51.8077 61.3098 52.0546 63.8705 51.7923C66.4312 51.53 68.9149 50.7638 71.1792 49.5377Z" fill="black"/>
</g>
<path opacity="0.1" d="M112.662 93.1623L114.074 92.478V92.2107C114.074 92.1081 112.948 92.3351 112.075 92.5284C112.703 92.6394 112.678 93.0614 112.662 93.1623Z" fill="black"/>
<path d="M113.89 77.7011C115.768 77.7011 117.291 75.8456 117.291 73.5567C117.291 71.2678 115.768 69.4123 113.89 69.4123C112.011 69.4123 110.489 71.2678 110.489 73.5567C110.489 75.8456 112.011 77.7011 113.89 77.7011Z" fill="#FFC833"/>
<path d="M81.1556 68.1631L75.6881 73.5634L57.7146 73.249L62.6566 68.1631H81.1556Z" fill="#DDA2A6"/>
<path d="M81.1552 86.6372V68.1631L75.6877 73.5634V91.6407L81.1552 86.6372Z" fill="#B77B7F"/>
<path d="M57.7146 73.249V91.6407H75.6881V73.5634L57.7146 73.249Z" fill="#DDA2A6"/>
<path opacity="0.3" d="M57.7146 73.249V91.6407H75.6881V73.5634L57.7146 73.249Z" fill="white"/>
<path d="M74.2276 78.6258L60.8604 76.3275L59.1179 85.1173L72.8797 87.6493L74.2276 78.6258Z" fill="#DCE0ED"/>
<path d="M71.5869 80.6786L62.6009 79.2647L62.376 80.4382L71.3619 81.9648L71.5869 80.6786Z" fill="#FFC833"/>
<path d="M69.1158 83.1888L64.0042 82.4457L63.7793 83.7487L69.1158 84.4985V83.1888Z" fill="#FFC833"/>
<path d="M78.9448 77.8591L78.7014 70.5858L77.2964 71.9746L77.5415 79.2647L78.9448 77.8591Z" fill="#65617D"/>
<path d="M60.8485 70.0243L78.1203 70.258L78.7011 70.5858L77.2961 71.9746L76.811 71.6888L59.7036 71.2029L60.8485 70.0243Z" fill="#65617D"/>
</g>
<defs>
<clipPath id="clip0_621_2099">
<rect width="177.316" height="136" fill="white"/>
</clipPath>
</defs>
</svg>
