<svg width="128" height="128" viewBox="0 0 128 128" fill="none" xmlns="http://www.w3.org/2000/svg">
<g clip-path="url(#clip0_598_2789)">
<path opacity="0.1" d="M44.9004 125.521C57.2317 125.521 67.2282 123.101 67.2282 120.115C67.2282 117.13 57.2317 114.71 44.9004 114.71C32.5691 114.71 22.5726 117.13 22.5726 120.115C22.5726 123.101 32.5691 125.521 44.9004 125.521Z" fill="#FFBA00"/>
<path opacity="0.1" d="M74.3687 18.0512C66.1628 17.6883 58.3475 14.3016 50.8846 10.5974C43.4217 6.89317 36.0298 2.79033 28.0205 0.828026C22.869 -0.434263 16.977 -0.614127 12.8272 2.91186C8.83201 6.31469 7.54128 12.1724 6.84774 17.6121C6.32536 21.7052 6.01853 26.0139 7.44873 29.8461C8.44276 32.5068 10.2051 34.7429 11.4249 37.2918C15.6685 46.1586 12.6687 57.0931 8.07127 65.7508C5.91583 69.8116 3.41172 73.6908 1.74696 78.0091C0.0822023 82.3275 -0.687415 87.2924 0.769407 91.7096C2.21228 96.0847 5.65211 99.3643 9.37848 101.673C16.9466 106.364 25.8612 107.706 34.5603 108.468C53.8109 110.15 73.1629 109.422 92.4642 108.691C99.6076 108.422 106.781 108.149 113.808 106.737C117.711 105.953 121.739 104.708 124.573 101.704C128.168 97.8914 129.06 91.4357 126.649 86.6556C122.607 78.6346 111.435 76.6432 108.606 68.0372C107.051 63.2992 108.648 58.0232 110.908 53.6303C115.757 44.2044 123.883 35.9355 124.31 25.1631C124.604 17.7644 120.698 10.3543 114.658 6.85266C108.327 3.18246 99.5467 3.64428 94.8783 9.71914C90.0666 15.9674 81.6148 18.3737 74.3687 18.0512Z" fill="#FFBA00"/>
<path d="M67.8481 58.6162L63.9645 55.2701L65.9234 51.5432L55.6661 50.4981L51.9803 54.1407L47.3664 50.8351L43.5183 51.4265L43.4727 50.1302C43.425 48.7788 43.3188 47.4318 43.1544 46.0954C43.1709 45.6903 43.1823 45.2253 43.181 44.7197C43.181 42.5889 42.9554 39.7645 41.9639 37.8816L42.1921 35.2598L40.3409 32.4647C40.6382 31.7079 40.9772 30.979 41.3553 30.2836C41.4187 30.1669 41.4821 30.0535 41.5505 29.9433C43.9532 29.7213 45.8487 27.1967 45.8487 24.1099C45.8487 23.9673 45.8487 23.8247 45.836 23.6837C45.836 23.627 45.8272 23.5687 45.8221 23.512C46.0567 23.674 46.2938 23.836 46.5309 23.9981C46.5752 24.0791 46.6259 24.1601 46.6817 24.2557L46.6931 24.2736L46.7641 24.3854L46.787 24.4194C46.8123 24.4583 46.8389 24.4955 46.8656 24.5344L46.8833 24.5604C46.9505 24.656 47.0215 24.7532 47.0976 24.8488C47.1067 24.8582 47.1151 24.8685 47.123 24.8796L47.2181 24.993L47.2447 25.0238C47.3258 25.1162 47.412 25.2053 47.4983 25.2895L47.5262 25.3155L47.6352 25.4111L47.6707 25.4402C47.7125 25.4726 47.7556 25.5067 47.7975 25.5375L47.8127 25.5488C47.8621 25.5828 47.9129 25.6152 47.9636 25.646L47.9889 25.659C48.032 25.6828 48.0743 25.7054 48.1157 25.727L48.155 25.7449C48.1994 25.7643 48.2425 25.7821 48.2882 25.7983L48.3161 25.8081C48.3718 25.8259 48.4276 25.8405 48.4847 25.8518H48.491C48.5448 25.8629 48.5989 25.87 48.6533 25.8729H48.6901C48.7387 25.8761 48.7873 25.8761 48.8359 25.8729H48.8676C48.9284 25.8684 48.989 25.8592 49.0489 25.8453C49.3326 25.7977 49.605 25.6728 49.8477 25.4791C49.9095 25.4263 49.9643 25.3612 50.01 25.2863C50.2636 24.8618 49.9846 24.3967 49.9846 24.3967C49.8857 24.0953 49.2442 23.883 49.2442 23.883C49.2442 23.883 47.2155 22.8006 47.2155 21.9386C47.2155 21.0765 46.7084 16.6042 41.4732 15.5817C41.4732 15.5817 38.0676 15.3371 37.1103 17.6672L37.09 17.9394C36.8086 18.1647 36.5753 18.6167 36.2976 18.7496C36.1776 18.7825 36.0619 18.8371 35.954 18.9117V18.8809C35.9219 18.9167 35.8957 18.9602 35.8767 19.0089C35.817 19.1606 35.7812 19.3257 35.7714 19.495C35.7428 19.7018 35.6867 19.9008 35.6053 20.0832C35.5826 20.135 35.5572 20.1849 35.5292 20.2323L35.5077 20.276C35.6549 20.2907 35.8027 20.2601 35.9388 20.1869C35.9173 20.4088 35.8748 20.6264 35.812 20.8351C35.8926 20.8384 35.9722 20.8121 36.0415 20.7592C36.1107 20.7064 36.1666 20.6292 36.2025 20.5369V20.524L36.219 20.4948C36.2509 20.4198 36.2772 20.3411 36.2976 20.2598L36.2836 20.2793C36.309 20.1739 36.3318 20.067 36.3597 19.9633C36.3725 19.9049 36.3936 19.85 36.4218 19.8013C36.4557 19.7577 36.4971 19.7248 36.5427 19.7054C36.5882 19.686 36.6368 19.6805 36.6843 19.6894L36.6323 21.0943H36.6551C36.6246 21.1965 36.5873 21.2952 36.5436 21.3892C36.3635 21.7619 36.0364 22.0163 35.916 22.4247C35.864 22.6216 35.8442 22.8301 35.8576 23.0372C35.8576 23.1587 35.869 23.2819 35.8767 23.4034V23.3937C35.8944 23.7178 35.8995 24.0256 35.7625 24.2865C35.6687 24.4648 35.5178 24.5992 35.4659 24.8018C35.4515 24.8582 35.445 24.9175 35.4468 24.9768C35.457 25.1544 35.486 25.3294 35.533 25.497C35.5336 25.4937 35.5336 25.4904 35.533 25.4872C35.5647 25.6105 35.5721 25.7418 35.5546 25.8696C35.4975 26.1937 35.1894 26.4643 35.2047 26.7738C35.2038 26.8145 35.2085 26.8551 35.2186 26.8937C35.2779 27.0449 35.3805 27.161 35.5052 27.2178C35.7006 27.3599 35.9251 27.4231 36.1492 27.3993C36.2332 27.3799 36.3145 27.3444 36.3902 27.294C36.3014 27.5549 36.2101 27.8125 36.1176 28.0572C36.1036 28.0961 36.0884 28.135 36.0732 28.1738C36.0732 28.1738 35.2896 27.5046 34.8446 28.869C34.7147 29.1525 34.6217 29.4612 34.5694 29.7829C34.5471 29.9116 34.5157 30.0374 34.4756 30.1588C34.278 30.5863 33.9823 30.9257 33.6287 31.1311C32.7208 31.6626 29.0541 37.5073 28.9894 39.0208C28.9577 39.6116 28.8795 40.1968 28.7561 40.7676C28.4675 42.1118 28.3933 43.5164 28.538 44.898C28.5833 45.3445 28.6584 45.7852 28.7624 46.2153C29.1517 47.7272 29.4116 50.5483 29.4116 50.5483L29.8325 55.4451C29.8169 56.121 29.8398 56.7974 29.901 57.469C29.4712 58.0961 27.7456 60.7098 28.4049 61.4211C28.9121 61.9818 29.7996 61.8894 30.2979 61.7744C29.8782 63.1015 29.2176 65.4089 29.1301 66.9937C29.0033 69.3384 29.3469 72.4447 29.8909 73.6373C30.4348 74.8299 32.2479 77.8892 32.2479 77.8892C32.2479 77.8892 32.163 82.0861 32.8109 83.6109C33.4588 85.1357 33.7199 88.2987 33.7199 88.2987C33.7199 88.2987 34.3247 90.9691 34.0217 91.951C33.7187 92.933 34.5834 93.7497 33.6756 94.4027C32.7677 95.0557 31.6063 109.774 31.6063 109.774C31.6063 109.774 31.1385 119.42 31.6063 119.911C31.6314 119.934 31.6581 119.954 31.6862 119.971V123.212C31.6862 123.212 31.3616 123.892 32.6815 124.03C33.5855 124.122 36.148 124.331 37.6682 124.453L38.8461 124.547C38.8461 124.547 41.6355 125.257 42.8679 124.547C44.1003 123.837 46.2849 123.853 45.9603 121.979C45.9173 121.723 45.8596 121.473 45.7879 121.228C45.4316 120.065 44.8268 119.932 43.7123 119.608C43.6476 119.59 43.5855 119.574 43.5285 119.561C42.3544 119.3 41.9689 119.998 41.3109 119.089C40.7391 118.304 38.9184 117.424 38.2983 117.145C38.3136 117.087 38.3326 117.03 38.3478 116.97C38.1722 116.932 38.0089 116.83 37.8774 116.677L39.5574 116.813L40.5578 116.892C40.5578 116.892 42.9287 117.497 43.9811 116.892C45.0335 116.288 46.8846 116.304 46.6082 114.711C46.5718 114.494 46.5231 114.281 46.4624 114.073C46.1594 113.084 45.6446 112.976 44.6975 112.702C44.6429 112.687 44.5922 112.673 44.5415 112.661C43.5437 112.439 43.2166 113.032 42.6574 112.261C42.1781 111.603 40.6655 110.866 40.1216 110.615C40.1216 110.255 39.7412 109.743 39.5016 109.229C39.2201 108.63 39.74 106.531 39.74 106.531L40.0366 97.825C40.1496 97.7607 40.2691 97.717 40.3917 97.6954C40.3917 97.6954 41.7331 96.0588 41.4301 94.3152C41.3683 93.7879 41.3361 93.2556 41.3337 92.7224C41.7749 92.199 42.3823 91.426 42.5547 90.9496C42.8362 90.1735 42.5547 86.4125 42.5547 86.4125V72.0315L44.7989 72.3216L46.8351 72.5889L47.4552 72.6699L49.4914 72.9324L54.1712 73.5369L58.3883 72.516L60.2128 72.0753L63.9645 71.1678V59.4362L67.8481 58.6162ZM36.9607 19.7413L36.6995 19.7057C36.7857 19.7105 36.877 19.7316 36.9607 19.7413Z" fill="url(#paint0_linear_598_2789)"/>
<path d="M58.7457 66.2337C57.4778 68.5525 52.9197 67.3242 52.9197 67.3242L49.3873 63.0998L48.9119 62.5278L49.7094 60.363C49.7094 60.363 49.963 60.4521 50.3978 60.6109C52.6813 61.4584 59.8158 64.2843 58.7457 66.2337Z" fill="#EFB7B9"/>
<path opacity="0.1" d="M50.3953 60.6109C50.2394 61.3044 49.8121 62.3431 49.3873 63.0998L48.9119 62.5278L49.7094 60.363C49.7094 60.363 49.9655 60.4521 50.3953 60.6109Z" fill="black"/>
<path d="M38.2806 36.198C38.2806 36.198 35.0246 38.0437 35.1844 42.5759C35.2994 45.4958 35.5483 48.4046 35.9299 51.2872C35.9299 51.2872 35.2643 58.1074 38.0359 59.8656C40.8076 61.6237 43.3725 63.0691 43.3725 63.0691C43.3725 63.0691 47.7088 63.6654 48.2476 63.9117C48.7865 64.158 50.4702 60.3922 50.1596 59.8056C49.849 59.219 45.869 57.9891 45.3619 57.0104C44.8547 56.0317 43.6819 55.4273 43.6819 55.4273C43.6819 55.4273 42.471 54.4907 42.3886 53.6449C42.3062 52.799 42.6257 52.1687 42.7069 51.7976C42.788 51.4265 42.9934 47.8438 42.9934 47.8438C42.9934 47.8438 44.3602 35.0913 38.2806 36.198Z" fill="#DCE6F2"/>
<path opacity="0.1" d="M40.4298 51.1009C40.4298 51.1009 35.963 52.0569 36.3953 54.0548C36.3953 54.0548 38.017 51.8981 40.4298 51.1009Z" fill="black"/>
<path opacity="0.1" d="M40.464 51.9094C40.464 51.9094 38.0081 54.4713 38.4886 54.6025C38.9691 54.7338 40.464 51.9094 40.464 51.9094Z" fill="black"/>
<path opacity="0.1" d="M41.6444 52.8023C41.6444 52.8023 40.9864 54.5248 41.3908 54.4081C41.7953 54.2914 41.6444 52.8023 41.6444 52.8023Z" fill="black"/>
<path opacity="0.1" d="M50.5603 60.794L50.289 60.6952C50.3663 60.3711 50.3879 60.1086 50.3245 59.9871C50.0139 59.4005 46.0364 58.1722 45.5305 57.1919C45.0246 56.2115 43.8506 55.6087 43.8506 55.6087C43.8506 55.6087 42.6397 54.6721 42.5573 53.8263C42.4749 52.9804 42.7944 52.3501 42.8756 51.979C42.9567 51.608 43.1621 48.0236 43.1621 48.0236C43.1621 48.0236 44.5251 35.2727 38.4455 36.3795C38.4455 36.3795 35.1895 38.2267 35.348 42.759C35.463 45.6789 35.7124 48.5877 36.0948 51.4702C36.0948 51.4702 35.4292 58.2905 38.2008 60.0486C40.9724 61.8068 43.5374 63.2522 43.5374 63.2522C43.5374 63.2522 47.8724 63.8468 48.4125 64.0948C48.6166 64.1887 48.9856 63.7042 49.3469 63.0383L49.5523 63.2829L53.0847 67.5057C53.0847 67.5057 57.6428 68.7356 58.9107 66.4168C59.9821 64.4658 52.8489 61.6399 50.5603 60.794Z" fill="black"/>
<path d="M36.4065 19.1871C36.2823 19.2181 36.1635 19.2768 36.0553 19.3605C35.9285 19.495 35.9285 19.7251 35.8968 19.926C35.8595 20.2055 35.7728 20.4705 35.6432 20.7006C35.7875 20.7141 35.9322 20.6835 36.0654 20.6114C36.0437 20.8332 36.0011 21.0509 35.9386 21.2596C36.0176 21.2622 36.0955 21.2356 36.163 21.183C36.2305 21.1304 36.2846 21.054 36.319 20.9631C36.3861 20.7805 36.4392 20.59 36.4775 20.3943C36.4894 20.3358 36.5101 20.2808 36.5383 20.2323C36.655 20.0556 36.8718 20.135 37.0518 20.1577C37.2017 20.1739 37.3522 20.1385 37.4877 20.0553C37.6233 19.9721 37.7389 19.8441 37.8227 19.6846C38.0142 19.3135 38.0256 18.364 37.5692 18.2635C37.0924 18.163 36.7957 19.0024 36.4065 19.1871Z" fill="#965D7B"/>
<g opacity="0.1">
<path opacity="0.1" d="M36.0429 19.5598C36.0543 19.4804 36.0619 19.3978 36.0758 19.3184C35.9554 19.4529 35.949 19.6814 35.9173 19.8839C35.9014 20.0008 35.8763 20.1153 35.8425 20.2258C35.9424 20.0225 36.0104 19.7963 36.0429 19.5598Z" fill="black"/>
<path opacity="0.1" d="M36.0833 20.8983C36.1464 20.6898 36.189 20.4721 36.2101 20.2501C36.0831 20.3184 35.9457 20.3489 35.8082 20.3392C35.7681 20.4532 35.7193 20.5618 35.6624 20.6633C35.8061 20.6775 35.9505 20.6475 36.0833 20.5758C36.0622 20.7978 36.0196 21.0155 35.9565 21.224C36.0355 21.2263 36.1133 21.1997 36.1808 21.1471C36.2482 21.0945 36.3024 21.0183 36.3369 20.9274C36.3685 20.8538 36.394 20.7761 36.413 20.6957C36.3758 20.7622 36.326 20.8156 36.2684 20.851C36.2108 20.8864 36.1471 20.9026 36.0833 20.8983Z" fill="black"/>
<path opacity="0.1" d="M37.1966 19.7964C37.0166 19.7737 36.7985 19.6943 36.6819 19.8709C36.6541 19.9198 36.6335 19.9747 36.621 20.033C36.6096 20.0751 36.5995 20.1189 36.5906 20.1626C36.711 20.0411 36.9063 20.1059 37.0698 20.127C37.2196 20.1426 37.37 20.107 37.5054 20.0239C37.6409 19.9407 37.7566 19.813 37.8407 19.6538C37.8792 19.5751 37.9078 19.4893 37.9257 19.3994C37.8388 19.5368 37.727 19.6448 37.5999 19.714C37.4727 19.7832 37.3343 19.8115 37.1966 19.7964Z" fill="black"/>
</g>
<path d="M40.2231 32.57L42.1567 35.5418L41.9044 38.5411L39.5676 33.8663L40.2231 32.57Z" fill="#DCE6F2"/>
<path opacity="0.1" d="M42.1554 35.5418L41.9183 38.3629L41.9031 38.5411L39.7946 34.3216L39.5676 33.8663L39.6336 33.7351L40.2219 32.57L40.3525 32.7709L42.1554 35.5418Z" fill="black"/>
<path d="M43.1594 28.5465C42.5052 28.7864 41.8801 29.6095 41.3362 30.6093C40.9685 31.2991 40.6398 32.0215 40.3523 32.7709C40.1735 33.2279 40.0163 33.667 39.8857 34.0494L39.7944 34.3216C39.5738 34.9876 39.4508 35.4332 39.4508 35.4332C39.4508 35.4332 34.4426 30.6207 35.235 30.2966C35.5013 30.188 35.8512 29.4588 36.1974 28.5401L36.2405 28.4234C36.4598 27.8336 36.6754 27.1757 36.8668 26.5567C37.2586 25.2847 37.549 24.1796 37.549 24.1796C37.549 24.1796 45.1564 27.8174 43.1594 28.5465Z" fill="#EFB7B9"/>
<path d="M46.1558 23.909C46.1558 23.909 47.3121 26.5826 48.8653 26.218C50.4185 25.8534 49.7794 24.7824 49.7794 24.7824L46.1558 23.909Z" fill="#444053"/>
<path d="M43.9149 116.458C42.8905 117.056 40.574 116.458 40.574 116.458L39.5977 116.38C38.3298 116.276 36.2074 116.101 35.4568 116.024C34.3613 115.909 34.6301 115.335 34.6301 115.335V111.869L39.9451 110.148C39.9451 110.148 42.0461 111.067 42.6217 111.869C43.1682 112.634 43.4877 112.046 44.4627 112.266C44.5109 112.277 44.5616 112.29 44.6148 112.306C45.5404 112.577 46.0425 112.684 46.3392 113.664C46.3988 113.87 46.4467 114.081 46.4825 114.296C46.7563 115.875 44.9381 115.863 43.9149 116.458Z" fill="#A36468"/>
<path opacity="0.1" d="M46.3392 113.664C46.1487 113.816 45.9485 113.948 45.7407 114.056C45.0434 114.463 44.3803 114.959 43.6753 115.343C42.9704 115.727 42.2109 116.001 41.4476 115.928C41.0482 115.891 40.64 115.766 40.2583 115.912C40.0223 116.028 39.8 116.186 39.5977 116.38C38.3298 116.276 36.2074 116.101 35.4568 116.024C34.3613 115.909 34.6301 115.335 34.6301 115.335V114.93C34.6694 114.93 34.7138 114.915 34.7645 114.91C35.0269 114.905 35.2882 114.955 35.5379 115.058C36.0882 115.249 36.6359 115.437 37.1862 115.625C37.2314 115.407 37.311 115.203 37.42 115.025C37.529 114.847 37.6651 114.7 37.8201 114.591C38.1342 114.378 38.4867 114.275 38.8421 114.291C39.6954 114.306 40.503 114.823 41.355 114.875C41.5933 114.903 41.8331 114.851 42.0511 114.726C42.1678 114.651 42.2705 114.543 42.3846 114.46C42.5672 114.347 42.7602 114.264 42.9589 114.212C43.5177 114.034 44.0663 113.808 44.6009 113.535C44.753 113.459 44.9305 113.321 44.9103 113.113C44.8836 112.838 44.5451 112.806 44.4563 112.553C44.4407 112.507 44.4334 112.458 44.4352 112.408C44.437 112.358 44.4477 112.31 44.4665 112.266C44.5147 112.277 44.5654 112.29 44.6186 112.306C45.5404 112.577 46.0425 112.684 46.3392 113.664Z" fill="black"/>
<path d="M42.8323 124.041C41.6278 124.745 38.9018 124.041 38.9018 124.041L37.7544 123.956C36.2684 123.834 33.7655 123.631 32.8818 123.536C31.5923 123.4 31.9093 122.726 31.9093 122.726V118.641L38.1639 116.615C38.1639 116.615 40.6363 117.696 41.3134 118.641C41.9562 119.54 42.3277 118.848 43.4802 119.107C43.5373 119.12 43.5969 119.136 43.659 119.154C44.7481 119.478 45.339 119.6 45.6876 120.754C45.7582 120.996 45.8146 121.244 45.8563 121.497C46.1707 123.354 44.0368 123.34 42.8323 124.041Z" fill="#A36468"/>
<path opacity="0.1" d="M45.6851 120.754C45.4611 120.932 45.2257 121.087 44.9814 121.215C44.1611 121.693 43.38 122.277 42.5508 122.729C41.7216 123.181 40.8278 123.502 39.9288 123.418C39.4597 123.374 38.9792 123.223 38.5341 123.398C38.2553 123.537 37.9928 123.724 37.7544 123.955C36.2684 123.834 33.7655 123.631 32.8818 123.536C31.5923 123.4 31.9093 122.726 31.9093 122.726V122.249C31.9618 122.238 32.0147 122.231 32.0678 122.227C32.3767 122.219 32.6843 122.278 32.9782 122.4L34.9168 123.068C34.9708 122.81 35.0653 122.569 35.1946 122.36C35.3239 122.151 35.4852 121.977 35.6686 121.851C36.0382 121.599 36.4534 121.477 36.8719 121.497C37.8761 121.515 38.8257 122.123 39.8286 122.184C40.108 122.217 40.3891 122.157 40.6452 122.011C40.7834 121.922 40.8988 121.794 41.0382 121.698C41.2527 121.564 41.4798 121.466 41.714 121.407C42.3679 121.196 43.01 120.929 43.6362 120.609C43.8149 120.519 44.0241 120.357 44.0001 120.114C43.9684 119.789 43.5702 119.751 43.465 119.452C43.4473 119.399 43.4392 119.34 43.4414 119.282C43.4436 119.224 43.456 119.167 43.4777 119.115C43.5347 119.128 43.5943 119.145 43.6565 119.162C44.7456 119.473 45.3364 119.6 45.6851 120.754Z" fill="black"/>
<path d="M40.1065 96.0101L39.7679 106.191C39.7679 106.191 39.2608 108.27 39.5359 108.865C39.811 109.459 40.2751 110.052 40.1065 110.404C39.9378 110.756 37.9092 114.557 37.2537 113.099C36.5982 111.64 35.9515 105.321 35.9515 105.321L36.5563 97.5154L40.1065 96.0101Z" fill="#444053"/>
<path d="M41.5747 70.6445L42.5155 72.2519V86.2327C42.5155 86.2327 42.7907 89.9596 42.5155 90.7293C42.2404 91.499 40.8457 93.0384 40.8457 93.0384L39.6729 85.3415L39.9264 77.199L41.5747 70.6445Z" fill="#444053"/>
<path opacity="0.1" d="M40.1065 96.0101L39.7679 106.191C39.7679 106.191 39.2608 108.27 39.5359 108.865C39.811 109.459 40.2751 110.052 40.1065 110.404C39.9378 110.756 37.9092 114.557 37.2537 113.099C36.5982 111.64 35.9515 105.321 35.9515 105.321L36.5563 97.5154L40.1065 96.0101Z" fill="black"/>
<path opacity="0.1" d="M41.5747 70.6445L42.5155 72.2519V86.2327C42.5155 86.2327 42.7907 89.9596 42.5155 90.7293C42.2404 91.499 40.8457 93.0384 40.8457 93.0384L39.6729 85.3415L39.9264 77.199L41.5747 70.6445Z" fill="black"/>
<path d="M42.5152 64.6813V72.2437L41.4591 78.1306C41.4591 78.1306 41.1205 92.3367 41.4159 94.064C41.7114 95.7914 40.4016 97.4134 40.4016 97.4134C40.4016 97.4134 39.6409 97.5219 39.6409 98.2771C39.6409 99.0322 38.373 101.194 38.373 101.194L38.4148 105.407C38.4148 105.407 38.9651 113.293 38.1194 114.805C37.2737 116.317 38.4148 116.534 38.4148 116.534C37.3587 120.963 32.287 119.937 31.8293 119.451C31.3716 118.965 31.8293 109.404 31.8293 109.404C31.8293 109.404 32.9628 94.8207 33.8504 94.1726C34.7379 93.5244 33.8935 92.7142 34.1889 91.742C34.4843 90.7697 33.8935 88.1236 33.8935 88.1236C33.8935 88.1236 33.6399 84.9898 33.0059 83.478C32.372 81.9661 32.4557 77.8066 32.4557 77.8066C32.4557 77.8066 30.6806 74.7813 30.1532 73.5935C29.6257 72.4058 29.2859 69.327 29.4127 67.0034C29.4989 65.4332 30.1443 63.1468 30.5538 61.8311C30.7503 61.2007 30.8923 60.7924 30.8923 60.7924L31.0128 60.8329L37.9381 63.1501L42.5152 64.6813Z" fill="#444053"/>
<path opacity="0.1" d="M43.1596 28.5465C42.5054 28.7863 41.8803 29.6095 41.3364 30.6093H41.1943C40.3971 30.61 39.6138 30.3417 38.9236 29.8316C38.2335 29.3214 37.6609 28.5875 37.2638 27.7039C37.0979 27.3378 36.9644 26.9492 36.8657 26.5453C37.2575 25.2733 37.5479 24.1682 37.5479 24.1682C37.5479 24.1682 45.1566 27.8173 43.1596 28.5465Z" fill="black"/>
<path d="M45.7271 24.4955C45.7282 25.3822 45.5701 26.2573 45.2649 27.0535C44.9597 27.8497 44.5156 28.5457 43.9667 29.088C43.4178 29.6303 42.7789 30.0043 42.0991 30.1813C41.4193 30.3582 40.7168 30.3334 40.0457 30.1088C39.3746 29.8841 38.7528 29.4655 38.2282 28.8853C37.7037 28.3052 37.2903 27.5788 37.0199 26.7623C36.7496 25.9458 36.6295 25.0608 36.669 24.1756C36.7084 23.2905 36.9063 22.4286 37.2474 21.6566C37.3848 21.3429 37.5453 21.0467 37.7267 20.7719C38.0256 20.3166 38.3771 19.9221 38.7689 19.6019C39.4307 19.0645 40.1902 18.7556 40.9733 18.7055C41.7565 18.6554 42.5363 18.8658 43.2368 19.3161C43.9373 19.7664 44.5344 20.4412 44.9698 21.2746C45.4051 22.108 45.6639 23.0715 45.7208 24.071C45.7233 24.2136 45.7271 24.3546 45.7271 24.4955Z" fill="#EFB7B9"/>
<path opacity="0.1" d="M41.9182 38.3629L41.9029 38.5411L39.7944 34.3281C39.5738 34.9941 39.4508 35.4397 39.4508 35.4397C39.4508 35.4397 34.4426 30.6206 35.235 30.2965C35.5013 30.188 35.8512 29.4588 36.1974 28.54L36.2405 28.4234C36.6082 29.8234 38.7446 32.6218 39.6334 33.7431C39.7361 33.8728 39.821 33.9797 39.887 34.0575L40.0226 34.2195L40.0936 34.3103C40.417 34.7364 41.7812 36.6161 41.9182 38.3629Z" fill="black"/>
<path d="M43.4941 52.6581L43.2633 62.1487L43.2228 63.8388C43.2228 63.8388 40.4892 63.5147 37.9381 63.1582C35.8841 62.8714 33.948 62.5619 33.6501 62.3804C33.2697 62.152 32.4545 61.9753 31.8116 61.8635C31.3146 61.7777 30.9241 61.7323 30.9241 61.7323C30.9241 61.7323 30.7783 61.7874 30.5539 61.8392C30.0645 61.9527 29.2048 62.045 28.704 61.4892C28.0637 60.7779 29.7462 58.1933 30.1659 57.5727L30.2584 57.4382L30.1 55.5667L29.6879 50.7136C29.6879 50.7136 29.4343 47.9184 29.0539 46.4195C28.9522 45.9934 28.8789 45.557 28.8346 45.1151C28.6933 43.7461 28.7657 42.355 29.0476 41.022C29.168 40.4556 29.2445 39.8754 29.2758 39.2898C29.3392 37.7909 32.921 31.998 33.8086 31.4714C34.2078 31.2334 34.5291 30.824 34.7164 30.3144C34.7782 30.1542 34.8246 29.985 34.8546 29.8105C35.235 27.7039 36.1973 28.5401 36.1973 28.5401C36.4293 30.188 40.0213 34.5501 40.0213 34.5501L40.0923 34.6409C40.4486 35.1075 42.036 37.2983 41.9232 39.1682C41.9006 39.8642 41.9819 40.5593 42.1628 41.2164C42.8934 44.1566 43.3134 47.2083 43.4117 50.2907L43.4941 52.6581Z" fill="#DCE6F2"/>
<path opacity="0.1" d="M38.4049 41.3882C38.4049 41.3882 37.5174 44.1428 36.8517 44.5884C36.1861 45.034 38.7219 45.5282 38.4049 41.3882Z" fill="black"/>
<path opacity="0.1" d="M39.0705 46.5329C39.0705 46.5329 37.0419 46.857 37.0419 47.3431C37.0419 47.8292 39.0705 46.5329 39.0705 46.5329Z" fill="black"/>
<path opacity="0.1" d="M41.1943 49.6927C41.1943 49.6927 38.2464 57.7136 37.4223 57.9567C36.5981 58.1998 41.1943 49.6927 41.1943 49.6927Z" fill="black"/>
<path opacity="0.1" d="M39.9656 34.9568L37.5274 36.3115L34.5846 30.6304C34.6464 30.4701 34.6928 30.3009 34.7228 30.1264C35.1032 28.0199 36.0655 28.856 36.0655 28.856C36.2975 30.504 39.8895 34.8661 39.8895 34.8661L39.9656 34.9568Z" fill="black"/>
<path d="M40.0924 34.6327L37.6542 35.9874L34.7114 30.3063C34.7733 30.146 34.8197 29.9768 34.8496 29.8023C35.23 27.6958 36.1923 28.5319 36.1923 28.5319C36.4244 30.1799 40.0163 34.542 40.0163 34.542L40.0924 34.6327Z" fill="#DCE6F2"/>
<path opacity="0.1" d="M43.2228 63.8387C43.2228 63.8387 40.4892 63.5146 37.9382 63.1582L42.5153 64.6894V66.4719C42.315 66.7036 42.1413 66.8235 42.0284 66.7619C41.501 66.4783 37.1965 65.5871 37.1965 65.5871C37.1965 65.5871 34.6962 63.9667 31.9981 62.0223C31.9326 61.9759 31.8691 61.925 31.8079 61.8699C31.4933 61.597 31.2222 61.25 31.0091 60.8475C30.5108 59.9255 30.2674 58.741 30.1621 57.5791C30.103 56.9133 30.0809 56.2429 30.0962 55.5731C30.1093 54.8135 30.1635 54.0561 30.2585 53.3061C29.9976 50.4015 29.8706 47.4797 29.8781 44.556C29.9098 40.0189 33.2381 38.3985 33.2381 38.3985C39.3557 37.7098 37.4589 50.3489 37.4589 50.3489C37.4589 50.3489 37.1052 53.9138 37.0088 54.2784C36.9125 54.643 36.5663 55.2506 36.6132 56.1013C36.6601 56.952 37.8291 57.9696 37.8291 57.9696C37.8291 57.9696 38.9703 58.6535 39.4407 59.6662C39.783 60.4132 42.0069 61.426 43.2634 62.1486L43.2228 63.8387Z" fill="black"/>
<path opacity="0.1" d="M45.2719 20.8983C45.2742 21.1652 45.231 21.4295 45.1451 21.6728C45.0801 21.8714 45.0047 22.0641 44.9194 22.2497C44.786 22.5911 44.5966 22.8917 44.3641 23.1312C44.0712 23.3985 43.701 23.4731 43.3498 23.5816C42.9985 23.6902 42.6334 23.8636 42.4331 24.246C42.3245 24.4918 42.2519 24.7609 42.2188 25.04C42.1852 25.3189 42.0981 25.5827 41.9652 25.8081C41.896 25.9181 41.8002 25.9956 41.6928 26.0284C41.5854 26.0613 41.4725 26.0476 41.3718 25.9896C41.2658 25.8982 41.1854 25.7659 41.1423 25.612C40.9978 25.1956 40.961 24.7337 40.9027 24.2849C40.8444 23.836 40.762 23.3742 40.5464 23.0129C40.3309 22.6515 39.9492 22.4133 39.6107 22.5543C39.4974 22.6101 39.3941 22.6945 39.3069 22.8025C39.2198 22.9106 39.1506 23.04 39.1035 23.183C39.0099 23.4694 38.9455 23.77 38.9121 24.0775C38.7549 25.1772 38.5693 26.2704 38.3555 27.3572C38.349 27.4017 38.3347 27.4438 38.3136 27.4803C38.2799 27.5233 38.2344 27.5477 38.1868 27.5484C37.9028 27.597 37.6302 27.3426 37.3437 27.3701C37.3142 27.3726 37.2849 27.3786 37.2562 27.388C36.7929 26.3589 36.5883 25.1728 36.6702 23.9902C36.7521 22.8076 37.1164 21.6858 37.7139 20.7767L37.7367 20.7686C37.9274 20.6822 38.1006 20.5427 38.2439 20.3603C38.4269 20.1262 38.5964 19.8755 38.7511 19.61L38.8525 19.448C39.1439 18.9993 39.4759 18.5963 39.8415 18.2473C39.9413 18.1428 40.0557 18.0636 40.1787 18.014C40.284 17.9877 40.3919 17.9834 40.4982 18.001C40.9361 18.0682 41.3776 18.0893 41.8181 18.0642C42.1251 18.0025 42.4345 17.9625 42.745 17.9443C43.5475 17.9734 44.2322 18.6978 44.7394 19.4918C45.012 19.8985 45.2554 20.3668 45.2719 20.8983Z" fill="black"/>
<path d="M36.6551 21.8105C36.4789 22.18 36.1606 22.4311 36.0414 22.8362C35.8665 23.4244 36.1619 24.1569 35.8906 24.6819C35.8005 24.8585 35.6522 24.9897 35.6015 25.1923C35.5153 25.5342 35.7511 25.8988 35.6902 26.2504C35.6294 26.602 35.2668 26.8986 35.3631 27.2421C35.4201 27.3919 35.5199 27.508 35.6421 27.5662C35.8342 27.707 36.0553 27.7698 36.276 27.746C36.6221 27.6731 36.8795 27.2389 37.2307 27.2064C37.516 27.1805 37.7886 27.4333 38.0726 27.3863C38.1202 27.3842 38.1655 27.3593 38.1994 27.3166C38.221 27.2805 38.2353 27.2383 38.2413 27.1935C38.4543 26.1078 38.6402 25.0146 38.7991 23.9138C38.8315 23.6063 38.8955 23.3055 38.9893 23.0193C39.0367 22.8766 39.1061 22.7474 39.1932 22.6394C39.2803 22.5315 39.3834 22.4469 39.4965 22.3906C39.835 22.2513 40.2154 22.4878 40.4322 22.8492C40.649 23.2105 40.7314 23.6724 40.7897 24.1212C40.8481 24.5701 40.8848 25.0319 41.0281 25.4483C41.0716 25.6028 41.1525 25.7355 41.2589 25.8275C41.4491 25.9685 41.7052 25.8567 41.851 25.646C41.9846 25.4206 42.0717 25.1559 42.1046 24.8763C42.1376 24.5977 42.2103 24.3292 42.3188 24.0839C42.5192 23.7015 42.8856 23.5281 43.2355 23.4196C43.5855 23.311 43.9544 23.2349 44.2499 22.9675C44.482 22.7283 44.6714 22.4282 44.8052 22.0876C44.9928 21.6695 45.1678 21.2158 45.1526 20.7346C45.1361 20.2096 44.8927 19.7413 44.6328 19.3329C44.1256 18.5389 43.4397 17.8146 42.6371 17.7871C42.3266 17.8037 42.0171 17.8437 41.7102 17.907C41.2696 17.9323 40.8281 17.9106 40.3904 17.8422C40.2839 17.8259 40.1761 17.8308 40.0708 17.8568C39.9477 17.9048 39.8334 17.9842 39.7348 18.0901C39.3689 18.4385 39.0365 18.841 38.7446 19.2892C38.5564 19.6081 38.3523 19.9112 38.1335 20.1966C37.9901 20.3793 37.8169 20.5193 37.6263 20.6066C37.4995 20.6519 37.3727 20.6195 37.2523 20.6698C36.8783 20.8205 36.8288 21.4443 36.6551 21.8105Z" fill="#965D7B"/>
<path opacity="0.1" d="M48.8653 26.2164C47.8509 26.4546 47.0103 25.4062 46.545 24.6414C46.4021 24.4091 46.272 24.1644 46.1558 23.909L49.6374 24.7483L49.7781 24.7824C49.7781 24.7824 50.4184 25.8534 48.8653 26.2164Z" fill="black"/>
<g opacity="0.1">
<path opacity="0.1" d="M35.6903 25.787C35.7045 25.5751 35.6793 25.3619 35.6168 25.1648C35.6168 25.181 35.6054 25.1972 35.6016 25.2134C35.5471 25.4305 35.6206 25.6558 35.6675 25.881C35.6776 25.8507 35.6852 25.8192 35.6903 25.787Z" fill="black"/>
<path opacity="0.1" d="M35.9921 23.1344C35.9791 23.3585 35.9825 23.5836 36.0023 23.8069C36.0153 23.5828 36.0119 23.3577 35.9921 23.1344Z" fill="black"/>
<path opacity="0.1" d="M44.7978 21.6194C44.6644 21.9607 44.475 22.2614 44.2425 22.5009C43.9496 22.7682 43.5806 22.8428 43.2281 22.9513C42.8757 23.0599 42.5118 23.2333 42.3114 23.6157C42.203 23.8616 42.1304 24.1306 42.0972 24.4097C42.0641 24.6892 41.977 24.9538 41.8436 25.1794C41.6978 25.39 41.4416 25.5034 41.2515 25.3609C41.145 25.2689 41.0642 25.1361 41.0207 24.9817C40.8774 24.5652 40.8394 24.105 40.7823 23.6546C40.7253 23.2041 40.6403 22.7439 40.4248 22.3826C40.2092 22.0212 39.8276 21.783 39.4891 21.924C39.3759 21.98 39.2726 22.0645 39.1855 22.1725C39.0984 22.2805 39.0291 22.4098 38.9819 22.5527C38.8881 22.8389 38.8241 23.1396 38.7917 23.4472C38.6337 24.548 38.4477 25.6412 38.2338 26.7269C38.2279 26.7716 38.2136 26.8139 38.192 26.85C38.1581 26.8927 38.1128 26.9176 38.0652 26.9197C37.7812 26.9667 37.5086 26.7139 37.2233 26.7398C36.8721 26.7722 36.6147 27.2065 36.2686 27.2778C36.0478 27.3031 35.8263 27.2402 35.6346 27.0979C35.5465 27.0495 35.4674 26.9777 35.4026 26.8873C35.3729 26.9416 35.3533 27.0037 35.3452 27.0691C35.3371 27.1345 35.3406 27.2015 35.3557 27.2648C35.4115 27.4157 35.5118 27.5322 35.6346 27.5889C35.8263 27.7312 36.0478 27.7941 36.2686 27.7688C36.6147 27.6975 36.8721 27.2632 37.2233 27.2308C37.5086 27.2049 37.7812 27.4576 38.0652 27.4107C38.1128 27.4085 38.1581 27.3837 38.192 27.341C38.2136 27.3049 38.2279 27.2626 38.2338 27.2178C38.4469 26.1376 38.6328 25.0443 38.7917 23.9381C38.8241 23.6306 38.8881 23.3299 38.9819 23.0437C39.0291 22.9008 39.0984 22.7715 39.1855 22.6635C39.2726 22.5555 39.3759 22.471 39.4891 22.415C39.8276 22.274 40.208 22.5122 40.4248 22.8735C40.6416 23.2349 40.724 23.6967 40.7823 24.1456C40.8407 24.5944 40.8774 25.0562 41.0207 25.4727C41.0642 25.6271 41.145 25.7599 41.2515 25.8518C41.4416 25.9928 41.6978 25.881 41.8436 25.6704C41.977 25.4448 42.0641 25.1802 42.0972 24.9007C42.1304 24.6216 42.203 24.3526 42.3114 24.1067C42.5118 23.7243 42.8782 23.5525 43.2281 23.4423C43.5781 23.3321 43.947 23.2592 44.2425 22.9918C44.475 22.7524 44.6644 22.4517 44.7978 22.1103C44.9854 21.6939 45.1604 21.2402 45.1452 20.7589C45.1427 20.6971 45.1376 20.6354 45.13 20.5742C45.0688 20.9451 44.9563 21.299 44.7978 21.6194Z" fill="black"/>
</g>
<path opacity="0.1" d="M45.1498 21.668C45.475 22.4068 45.6677 23.2287 45.714 24.0742C44.5843 23.264 43.5218 22.3744 42.9855 22.0649C42.0511 21.5254 38.5567 21.6064 37.2432 21.6566C37.3806 21.3429 37.5411 21.0467 37.7224 20.7719C38.0226 20.3163 38.3753 19.9217 38.7685 19.6019C39.2891 19.1796 39.8717 18.8975 40.4806 18.7727C41.0894 18.6479 41.7118 18.6831 42.3097 18.8762C42.9076 19.0693 43.4684 19.4161 43.9578 19.8956C44.4472 20.375 44.855 20.977 45.1562 21.6647L45.1498 21.668Z" fill="black"/>
<path opacity="0.1" d="M49.1822 25.5294C48.5724 25.7692 47.5771 25.3057 46.545 24.6414C46.4021 24.4091 46.272 24.1644 46.1558 23.909L49.6374 24.7483C49.8682 24.9493 49.9265 25.2361 49.1822 25.5294Z" fill="black"/>
<path d="M41.4642 16.05C41.4642 16.05 38.136 15.807 37.2003 18.1161L37.0494 20.1626L36.7958 20.127L36.7451 21.5189C36.7451 21.5189 41.8319 21.2353 42.9895 21.9029C44.1471 22.5705 47.7442 25.9345 49.1858 25.3673C50.6274 24.8002 49.059 24.2736 49.059 24.2736C49.059 24.2736 47.0747 23.1992 47.0747 22.3566C47.0747 21.514 46.5828 17.0628 41.4642 16.05Z" fill="#444053"/>
<path opacity="0.1" d="M35.0449 91.917C35.0449 91.917 37.1687 94.5501 38.0879 94.3476C38.0879 94.3476 35.4887 94.064 35.0449 91.917Z" fill="black"/>
<path opacity="0.1" d="M34.6012 93.1371C34.6012 93.1371 34.7914 94.4918 35.2986 94.3589C35.8057 94.226 34.6012 93.1371 34.6012 93.1371Z" fill="black"/>
<path opacity="0.1" d="M37.9294 115.777C37.9294 115.777 34.9143 118.775 35.4228 118.856C35.9312 118.937 37.9294 115.777 37.9294 115.777Z" fill="black"/>
<path d="M41.9626 56.2812L51.7255 54.2508V66.0635L42.4495 65.4429L41.9626 56.2812Z" fill="#FFBA00"/>
<path opacity="0.05" d="M41.9626 56.2812L51.7255 54.2508V66.0635L42.4495 65.4429L41.9626 56.2812Z" fill="black"/>
<path d="M51.7255 54.2508L63.4333 55.3705L62.7854 65.6503L51.7255 66.0635V54.2508Z" fill="#FFBA00"/>
<path opacity="0.1" d="M51.7255 54.2508L63.4333 55.3705L62.7854 65.6503L51.7255 66.0635V54.2508Z" fill="black"/>
<path d="M55.3251 50.6454L51.7255 54.2508L63.4333 55.3705L65.3466 51.6809L55.3251 50.6454Z" fill="#FFBA00"/>
<path d="M38.4276 52.3437L47.2167 50.9761L51.7254 54.2509L41.9625 56.2813L38.4276 52.3437Z" fill="#FFBA00"/>
<path d="M53.8657 57.3183V73.4688L49.2924 72.8693L47.3031 72.61L46.697 72.529L44.7089 72.2681L41.9626 71.9084V56.2812L51.7242 57.1303L53.8657 57.3183Z" fill="#FFBA00"/>
<path d="M63.4333 55.3706V71.1209L59.7678 72.0202L57.9851 72.4577L53.8657 73.4688V57.3183L63.4333 55.3706Z" fill="#FFBA00"/>
<path opacity="0.05" d="M63.4333 55.3706V71.1209L59.7678 72.0202L57.9851 72.4577L53.8657 73.4688V57.3183L63.4333 55.3706Z" fill="black"/>
<path d="M38.4276 59.6808L41.9625 56.2812L53.8656 57.3183L52.1134 61.0906L38.4276 59.6808Z" fill="#FFBA00"/>
<path opacity="0.1" d="M38.4276 59.6808L41.9625 56.2812L53.8656 57.3183L52.1134 61.0906L38.4276 59.6808Z" fill="white"/>
<path d="M63.4333 55.3706L53.8657 57.3183L56.9797 60.8832L67.2281 58.6859L63.4333 55.3706Z" fill="#FFBA00"/>
<path opacity="0.1" d="M63.4333 55.3706L53.8657 57.3183L56.9797 60.8832L67.2281 58.6859L63.4333 55.3706Z" fill="white"/>
<path opacity="0.1" d="M59.7677 72.0201L57.985 72.4576V69.092L59.6548 68.5541L59.7677 72.0201Z" fill="white"/>
<path opacity="0.1" d="M49.2922 70.6429V72.8693L47.3029 72.61V70.6429H49.2922Z" fill="white"/>
<path opacity="0.1" d="M46.6968 71.3445V72.529L44.7087 72.2681V71.3445H46.6968Z" fill="white"/>
<path opacity="0.1" d="M52.6688 69.4615C51.3058 71.6896 46.8047 70.1502 46.8047 70.1502L43.46 65.6909L43.0061 65.0865L43.8936 62.9799C43.8936 62.9799 44.1472 63.0869 44.5707 63.2749C46.8124 64.2763 53.8163 67.5867 52.6688 69.4615Z" fill="black"/>
<path d="M52.542 69.1374C51.179 71.3655 46.6779 69.8261 46.6779 69.8261L43.3332 65.3668L42.8793 64.7624L43.7668 62.6559C43.7668 62.6559 44.0204 62.7628 44.4439 62.9508C46.6855 63.9522 53.6894 67.2626 52.542 69.1374Z" fill="#EFB7B9"/>
<path opacity="0.1" d="M44.4389 62.9508C44.2537 63.6313 43.7834 64.6392 43.3282 65.3668L42.8743 64.7624L43.7618 62.6559C43.7618 62.6559 44.0166 62.7628 44.4389 62.9508Z" fill="black"/>
<path d="M33.3649 37.7504C33.3649 37.7504 30.0367 39.3708 30.005 43.9079C29.9974 46.8317 30.1244 49.7534 30.3853 52.6581C30.3853 52.6581 29.4344 59.4232 32.1287 61.3677C34.823 63.3122 37.3271 64.9326 37.3271 64.9326C37.3271 64.9326 41.6316 65.8238 42.1603 66.1074C42.6891 66.391 44.5263 62.7451 44.241 62.1374C43.9557 61.5298 40.0366 60.0309 39.5713 59.0181C39.106 58.0054 37.9598 57.3232 37.9598 57.3232C37.9598 57.3232 36.7908 56.304 36.7439 55.4533C36.697 54.6026 37.0418 53.9949 37.1395 53.6303C37.2371 53.2657 37.5908 49.7009 37.5908 49.7009C37.5908 49.7009 39.4825 37.0537 33.3649 37.7504Z" fill="#DCE6F2"/>
<path opacity="0.1" d="M34.8864 52.7714C34.8864 52.7714 30.3853 53.4196 30.734 55.4451C30.734 55.4451 32.4444 53.4018 34.8864 52.7714Z" fill="black"/>
<path opacity="0.1" d="M34.8861 53.5816C34.8861 53.5816 32.3313 55.9717 32.8004 56.1338C33.2696 56.2958 34.8861 53.5816 34.8861 53.5816Z" fill="black"/>
<path opacity="0.1" d="M36.0274 54.5539C36.0274 54.5539 35.2984 56.2294 35.7104 56.1419C36.1225 56.0544 36.0274 54.5539 36.0274 54.5539Z" fill="black"/>
<path d="M82.8918 18.2117C82.8918 18.2117 78.0737 17.8406 78.6367 22.1606C78.6367 22.1606 78.5239 22.9238 79.0652 23.2705C79.0652 23.2705 79.0741 22.9465 79.5597 23.0583C79.7327 23.0955 79.9084 23.1063 80.0834 23.0907C80.3204 23.0705 80.5458 22.9515 80.7249 22.752C80.7249 22.752 82.0803 22.0374 82.6078 19.205C82.6078 19.205 82.9983 18.586 82.9882 18.4272L82.1742 18.8728C82.1742 18.8728 82.4518 19.623 82.2325 20.2469C82.2325 20.2469 82.2071 18.9003 82.0499 18.9311C82.0182 18.9311 81.6277 19.192 81.6277 19.192C81.6277 19.192 82.1057 20.498 81.7443 21.4492C81.7443 21.4492 81.8813 19.8385 81.4781 19.286L80.905 19.7138C80.905 19.7138 81.4641 21.0636 81.085 22.1654C81.085 22.1654 81.1827 20.4753 80.7845 19.8175L80.2647 20.3344C80.2647 20.3344 80.7909 21.6663 80.4701 22.5802C80.4701 22.5802 80.4282 20.6131 80.1518 20.464C80.1518 20.464 79.6979 20.9761 79.6295 21.1867C79.6295 21.1867 79.9883 22.1589 79.7651 22.6629C79.7651 22.6629 79.6282 21.352 79.5116 21.3455C79.5116 21.3455 79.0589 22.214 79.012 22.8039C79.0339 22.254 79.1681 21.721 79.4012 21.258C79.1404 21.3211 78.8997 21.4805 78.709 21.7166C78.709 21.7166 78.7787 21.1024 79.5128 21.049C79.5128 21.049 79.8932 20.3895 79.987 20.349C79.987 20.349 79.2567 20.2712 78.8142 20.5223C78.8142 20.5223 79.2035 19.9439 80.1214 20.1983L80.6286 19.6635C80.6286 19.6635 79.6675 19.5015 79.2592 19.6814C79.2592 19.6814 79.7284 19.1693 80.7668 19.542L81.3247 19.1158C81.3247 19.1158 80.5056 18.889 80.0174 18.9716C80.0174 18.9716 80.5322 18.6167 81.4882 19.0008L81.8876 18.7723C81.8876 18.7723 81.2866 18.6216 81.1117 18.5973C80.9367 18.573 80.9265 18.5114 80.9265 18.5114C81.3067 18.4306 81.6971 18.4867 82.0537 18.6735C82.0537 18.6735 82.9095 18.2797 82.8918 18.2117Z" fill="#FFBA00"/>
<path opacity="0.1" d="M97.531 39.818C97.531 39.818 92.713 39.4469 93.276 43.7669C93.276 43.7669 93.1631 44.5301 93.7045 44.8769C93.7045 44.8769 93.7134 44.5528 94.2003 44.6646C94.3732 44.7018 94.549 44.7127 94.7239 44.697C94.9582 44.6753 95.1806 44.557 95.3579 44.36C95.3579 44.36 96.7145 43.6438 97.2419 40.8113C97.2419 40.8113 97.6312 40.1939 97.616 40.0351L96.802 40.4791C96.802 40.4791 97.0796 41.2294 96.8616 41.8532C96.8616 41.8532 96.8349 40.5067 96.679 40.5375C96.6473 40.5375 96.2555 40.7983 96.2555 40.7983C96.2555 40.7983 96.7348 42.106 96.3734 43.0556C96.3734 43.0556 96.5104 41.4449 96.1059 40.8923L95.5392 41.3152C95.5392 41.3152 96.0983 42.665 95.7192 43.7669C95.7192 43.7669 95.8168 42.0768 95.4187 41.419L94.9001 41.9375C94.9001 41.9375 95.4251 43.2678 95.1055 44.1817C95.1055 44.1817 95.0637 42.2146 94.7873 42.0655C94.7873 42.0655 94.3334 42.5775 94.2637 42.7882C94.2637 42.7882 94.6237 43.7604 94.4006 44.2644C94.4006 44.2644 94.2637 42.9535 94.147 42.947C94.147 42.947 93.6944 43.8155 93.6475 44.4053C93.6701 43.8554 93.8047 43.3225 94.038 42.8595C93.7768 42.9227 93.5357 43.0821 93.3444 43.3181C93.3444 43.3181 93.4154 42.7039 94.1495 42.6505C94.1495 42.6505 94.5236 41.991 94.6237 41.9504C94.6237 41.9504 93.8934 41.8727 93.4509 42.1238C93.4509 42.1238 93.8402 41.5453 94.7569 41.8079L95.264 41.2731C95.264 41.2731 94.3017 41.1111 93.8947 41.2909C93.8947 41.2909 94.3638 40.7789 95.4022 41.1516L95.9601 40.7254C95.9601 40.7254 95.1398 40.5002 94.6516 40.5812C94.6516 40.5812 95.1677 40.2263 96.1237 40.6104L96.523 40.3819C96.523 40.3819 95.9221 40.2312 95.7458 40.2069C95.5696 40.1826 95.5607 40.121 95.5607 40.121C95.9413 40.0401 96.3321 40.0962 96.6891 40.2831C96.6891 40.2831 97.5462 39.8861 97.531 39.818Z" fill="#FFBA00"/>
<path opacity="0.1" d="M68.2614 35.9825C68.2614 35.9825 69.3708 29.9725 65.9424 29.9514C65.9424 29.9514 65.3731 29.6792 65.0143 30.3014C65.0143 30.3014 65.259 30.3679 65.0929 30.9609C65.0354 31.1706 64.9971 31.3881 64.9788 31.6091C64.9542 31.9103 65.0072 32.2135 65.1296 32.4728C65.1296 32.4728 65.4504 34.3038 67.5387 35.451C67.5387 35.451 67.9495 36.0474 68.0738 36.0538L67.8709 34.9536C67.8709 34.9536 67.2445 35.1756 66.8008 34.7915C66.8008 34.7915 67.8443 34.9876 67.8455 34.7915C67.8455 34.751 67.7187 34.2147 67.7187 34.2147C67.7187 34.2147 66.6296 34.5939 65.9576 33.9765C65.9576 33.9765 67.1761 34.4237 67.6718 34.0105L67.4436 33.2133C67.4436 33.2133 66.3025 33.6881 65.5214 33.0221C65.5214 33.0221 66.8084 33.4337 67.384 33.0448L67.0734 32.3026C67.0734 32.3026 65.9576 32.7369 65.3072 32.1778C65.3072 32.1778 66.8287 32.4598 66.9935 32.139C66.9935 32.139 66.6765 31.4795 66.5256 31.3563C66.5256 31.3563 65.7192 31.6447 65.3642 31.2769C65.3642 31.2769 66.3976 31.3271 66.4217 31.1878C66.4217 31.1878 65.8295 30.4699 65.3782 30.3079C65.7988 30.4303 66.1873 30.6905 66.5053 31.063C66.5007 30.7234 66.4187 30.3929 66.2695 30.1118C66.2695 30.1118 66.731 30.3063 66.6499 31.2461C66.6499 31.2461 67.0937 31.8295 67.1076 31.9623C67.1076 31.9623 67.2915 31.0565 67.1735 30.4554C67.1735 30.4554 67.5539 31.0452 67.1951 32.1552L67.5197 32.8924C67.5197 32.8924 67.8138 31.7096 67.739 31.1651C67.739 31.1651 68.0547 31.8424 67.5894 33.0869L67.824 33.8631C67.824 33.8631 68.1371 32.8681 68.1574 32.2427C68.1574 32.2427 68.3438 32.9524 67.8836 34.0915L67.9926 34.6327C67.9926 34.6327 68.2107 33.9019 68.2589 33.6848C68.3071 33.4677 68.3565 33.4661 68.3565 33.4661C68.3546 33.959 68.2452 34.4416 68.0408 34.8596C68.0408 34.8596 68.2069 35.9906 68.2614 35.9825Z" fill="#FFBA00"/>
<path opacity="0.1" d="M57.7097 38.0307C57.7097 38.0307 53.8401 34.3313 52.4568 38.3386C52.4568 38.3386 52.0346 38.8976 52.3376 39.5668C52.3376 39.5668 52.4822 39.3059 52.8448 39.7386C52.9732 39.8913 53.1154 40.024 53.2683 40.134C53.4753 40.2813 53.7144 40.3382 53.9491 40.296C53.9491 40.296 55.3895 40.6509 57.0479 38.6562C57.0479 38.6562 57.64 38.4131 57.6958 38.2705L56.8222 38.0744C56.8222 38.0744 56.7309 38.896 56.2808 39.2638C56.2808 39.2638 56.8374 38.1198 56.6929 38.0372C56.6637 38.0193 56.2276 37.9561 56.2276 37.9561C56.2276 37.9561 56.0653 39.3853 55.3552 39.9249C55.3552 39.9249 56.1629 38.6756 56.0627 37.9302L55.3996 37.8848C55.3996 37.8848 55.2868 39.4064 54.4956 40.061C54.4956 40.061 55.3033 38.7177 55.2563 37.8881L54.5996 37.9561C54.5996 37.9561 54.4664 39.4356 53.8059 39.9735C53.8059 39.9735 54.6161 38.3013 54.45 37.9837C54.45 37.9837 53.8502 38.0923 53.7019 38.2187C53.7019 38.2187 53.5865 39.2784 53.1808 39.5474C53.1808 39.5474 53.6309 38.3564 53.5396 38.2737C53.5396 38.2737 52.7877 38.6805 52.4923 39.1439C52.7479 38.7002 53.0896 38.3494 53.4838 38.1263C53.2386 37.996 52.9689 37.96 52.7079 38.0226C52.7079 38.0226 53.0299 37.5592 53.6664 38.0307C53.6664 38.0307 54.2623 37.7439 54.3637 37.7795C54.3637 37.7795 53.7868 37.201 53.3088 37.1006C53.3088 37.1006 53.8845 36.8899 54.5374 37.7487L55.1955 37.6629C55.1955 37.6629 54.4639 36.8527 54.0442 36.7165C54.0442 36.7165 54.6566 36.6177 55.3629 37.658L56.012 37.6953C56.012 37.6953 55.425 36.9304 54.9825 36.655C54.9825 36.655 55.5644 36.7198 56.1984 37.7131L56.6308 37.8022C56.6308 37.8022 56.1933 37.2545 56.0564 37.1119C55.9195 36.9693 55.9385 36.9094 55.9385 36.9094C56.2912 37.109 56.5936 37.4299 56.8121 37.8362C56.8121 37.8362 57.6933 38.0971 57.7097 38.0307Z" fill="#FFBA00"/>
<path opacity="0.1" d="M70.5932 3.6605C70.5932 3.6605 66.7235 -0.040488 65.3402 3.96837C65.3402 3.96837 64.918 4.52741 65.221 5.19664C65.221 5.19664 65.3656 4.93575 65.7282 5.3684C65.8573 5.52032 65.9999 5.65247 66.153 5.76215C66.36 5.90963 66.5991 5.96654 66.8338 5.92419C66.8338 5.92419 68.2742 6.27906 69.9326 4.28273C69.9326 4.28273 70.5247 4.04129 70.5792 3.89708L69.7056 3.70425C69.7056 3.70425 69.6156 4.52579 69.1642 4.89362C69.1642 4.89362 69.7221 3.74962 69.5776 3.66698C69.5484 3.64916 69.1123 3.58596 69.1123 3.58596C69.1123 3.58596 68.9449 5.01839 68.2349 5.55474C68.2349 5.55474 69.0412 4.30542 68.9424 3.56003L68.2792 3.51466C68.2792 3.51466 68.1651 5.03622 67.3752 5.68924C67.3752 5.68924 68.1829 4.34593 68.136 3.51628L67.4805 3.58434C67.4805 3.58434 67.3461 5.06538 66.6855 5.60336C66.6855 5.60336 67.4969 3.93111 67.3308 3.61351C67.3308 3.61351 66.7311 3.72207 66.5828 3.84847C66.5828 3.84847 66.4674 4.90821 66.0617 5.17719C66.0617 5.17719 66.5118 3.9862 66.4205 3.90194C66.4205 3.90194 65.6686 4.31028 65.3732 4.77371C65.6284 4.32951 65.9702 3.97863 66.3647 3.7561C66.1192 3.62486 65.8489 3.58879 65.5875 3.6524C65.5875 3.6524 65.9108 3.18896 66.5473 3.6605C66.5473 3.6605 67.1432 3.37207 67.2446 3.40934C67.2446 3.40934 66.6677 2.83086 66.1897 2.72877C66.1897 2.72877 66.7641 2.51974 67.4171 3.37693L68.0751 3.29105C68.0751 3.29105 67.3448 2.48085 66.9238 2.34312C66.9238 2.34312 67.5362 2.24589 68.2437 3.28619L68.8929 3.32184C68.8929 3.32184 68.3059 2.55701 67.8621 2.28316C67.8621 2.28316 68.4453 2.34798 69.0793 3.34128L69.5104 3.4304C69.5104 3.4304 69.0717 2.88919 68.9347 2.74984C68.7978 2.61048 68.8168 2.54891 68.8168 2.54891C69.1697 2.74831 69.4721 3.06923 69.6904 3.47577C69.6904 3.47577 70.5716 3.72208 70.5932 3.6605Z" fill="#FFBA00"/>
<path opacity="0.1" d="M85.3796 8.3483C85.3796 8.3483 83.8327 2.49704 80.9153 4.79639C80.9153 4.79639 80.3194 4.95842 80.2725 5.72163C80.2725 5.72163 80.507 5.61145 80.611 6.2272C80.6496 6.44623 80.7079 6.65883 80.7847 6.86077C80.8895 7.13255 81.0603 7.35368 81.2716 7.49111C81.2716 7.49111 82.3011 8.82793 84.5529 8.38557C84.5529 8.38557 85.1475 8.61566 85.2566 8.53626L84.6226 7.74065C84.6226 7.74065 84.1839 8.35154 83.6489 8.32723C83.6489 8.32723 84.6163 7.78926 84.5364 7.61588C84.5199 7.58185 84.189 7.21402 84.189 7.21402C84.189 7.21402 83.4207 8.27214 82.5965 8.20246C82.5965 8.20246 83.815 7.75847 84.0635 7.06818L83.5386 6.55128C83.5386 6.55128 82.7702 7.7212 81.8282 7.68555C81.8282 7.68555 83.0961 7.16541 83.4169 6.44595L82.8463 6.02627C82.8463 6.02627 82.0856 7.1492 81.2969 7.11355C81.2969 7.11355 82.7068 6.32442 82.7106 5.94201C82.7106 5.94201 82.1692 5.59686 81.9905 5.59362C81.9905 5.59362 81.425 6.38276 80.9761 6.31146C80.9761 6.31146 81.8738 5.6552 81.8358 5.5207C81.8358 5.5207 81.037 5.31167 80.5869 5.48019C80.994 5.29904 81.4311 5.25715 81.8548 5.35866C81.7101 5.07331 81.5035 4.84806 81.2602 4.7105C81.2602 4.7105 81.7318 4.56305 82.0475 5.41214C82.0475 5.41214 82.6663 5.6082 82.7322 5.71029C82.7322 5.71029 82.5141 4.81745 82.1654 4.38643C82.1654 4.38643 82.7322 4.6311 82.8869 5.81562L83.4676 6.22071C83.4676 6.22071 83.2279 5.02 82.9389 4.60032C82.9389 4.60032 83.4879 4.96329 83.607 6.33252L84.1269 6.83322C84.1269 6.83322 83.9823 5.77673 83.7389 5.22903C83.7389 5.22903 84.1903 5.70543 84.2714 6.98392L84.5871 7.36958C84.5871 7.36958 84.4705 6.60151 84.4223 6.38438C84.3741 6.16724 84.4134 6.15266 84.4134 6.15266C84.615 6.57301 84.7216 7.05644 84.7215 7.54944C84.7215 7.54944 85.3352 8.39043 85.3796 8.3483Z" fill="#FFBA00"/>
<path opacity="0.1" d="M75.2842 8.6367C75.2842 8.6367 70.4789 7.95289 70.8757 12.3101C70.8757 12.3101 70.7324 13.0652 71.2561 13.4444C71.2561 13.4444 71.2776 13.1203 71.7632 13.2662C71.9349 13.3134 72.1101 13.3356 72.2856 13.3326C72.5227 13.3271 72.752 13.223 72.9386 13.0361C72.9386 13.0361 74.3219 12.409 74.9673 9.61379C74.9673 9.61379 75.3806 9.02235 75.3717 8.86193L74.5412 9.25407C74.5412 9.25407 74.7948 10.0205 74.5412 10.6298C74.5412 10.6298 74.5679 9.28323 74.4144 9.3043C74.3827 9.3043 73.9821 9.53764 73.9821 9.53764C73.9821 9.53764 74.4081 10.8745 74.01 11.8062C74.01 11.8062 74.2103 10.2052 73.8287 9.62838L73.2391 10.0173C73.2391 10.0173 73.7463 11.4027 73.3215 12.4787C73.3215 12.4787 73.4863 10.7967 73.1148 10.1145L72.576 10.6006C72.576 10.6006 73.0476 11.9634 72.6914 12.8562C72.6914 12.8562 72.7281 10.889 72.4581 10.7221C72.4581 10.7221 71.9839 11.2083 71.9065 11.4092C71.9065 11.4092 72.2273 12.3976 71.9851 12.8919C71.9851 12.8919 71.9002 11.5745 71.7886 11.5615C71.7886 11.5615 71.3017 12.3993 71.2307 12.9907C71.2747 12.4424 71.4303 11.9183 71.6821 11.4708C71.419 11.5172 71.1722 11.6608 70.9721 11.884C70.9721 11.884 71.0659 11.2763 71.8013 11.2698C71.8013 11.2698 72.2007 10.6363 72.3085 10.6022C72.3085 10.6022 71.5819 10.4775 71.1293 10.6995C71.1293 10.6995 71.5414 10.1453 72.4467 10.4677L72.9804 9.96704C72.9804 9.96704 72.0156 9.7175 71.6073 9.87954C71.6073 9.87954 72.0967 9.39342 73.1186 9.83903L73.693 9.44851C73.693 9.44851 72.8828 9.16981 72.3921 9.22004C72.3921 9.22004 72.9209 8.89596 73.8604 9.34481L74.2686 9.14226C74.2686 9.14226 73.674 8.95267 73.499 8.91702C73.324 8.88137 73.3177 8.8198 73.3177 8.8198C73.701 8.76359 74.089 8.84437 74.4385 9.05314C74.4385 9.05314 75.2931 8.70475 75.2842 8.6367Z" fill="#FFBA00"/>
<path opacity="0.1" d="M117.328 56.3039C117.328 56.3039 112.525 55.6201 112.922 59.9725C112.922 59.9725 112.779 60.7276 113.303 61.1068C113.303 61.1068 113.324 60.7827 113.81 60.9269C113.981 60.9757 114.157 60.998 114.332 60.9934C114.569 60.9887 114.799 60.8845 114.985 60.6968C114.985 60.6968 116.368 60.0697 117.007 57.2762C117.007 57.2762 117.421 56.6831 117.412 56.5243L116.581 56.9148C116.581 56.9148 116.835 57.6829 116.581 58.2921C116.581 58.2921 116.608 56.944 116.455 56.9667C116.423 56.9667 116.022 57.1984 116.022 57.1984C116.022 57.1984 116.448 58.5352 116.05 59.4669C116.05 59.4669 116.251 57.8676 115.869 57.2891L115.279 57.6796C115.279 57.6796 115.786 59.0651 115.363 60.141C115.363 60.141 115.527 58.459 115.155 57.7752L114.616 58.2614C114.616 58.2614 115.088 59.6241 114.732 60.5153C114.732 60.5153 114.768 58.5482 114.498 58.3829C114.498 58.3829 114.025 58.869 113.947 59.0699C113.947 59.0699 114.269 60.0584 114.025 60.5526C114.025 60.5526 113.94 59.2352 113.829 59.2223C113.829 59.2223 113.342 60.06 113.271 60.6514C113.315 60.1031 113.471 59.5791 113.722 59.1315C113.459 59.1772 113.212 59.3209 113.012 59.5447C113.012 59.5447 113.106 58.9354 113.841 58.929C113.841 58.929 114.242 58.2954 114.349 58.263C114.349 58.263 113.622 58.1366 113.169 58.3586C113.169 58.3586 113.582 57.806 114.488 58.1285L115.021 57.6278C115.021 57.6278 114.067 57.3977 113.653 57.5565C113.653 57.5565 114.142 57.0704 115.164 57.5144L115.738 57.1255C115.738 57.1255 114.928 56.8468 114.437 56.897C114.437 56.897 114.966 56.5729 115.906 57.0218L116.314 56.8176C116.314 56.8176 115.719 56.628 115.544 56.594C115.369 56.5599 115.363 56.4967 115.363 56.4967C115.746 56.4395 116.134 56.5198 116.484 56.7285C116.484 56.7285 117.341 56.3736 117.328 56.3039Z" fill="#FFBA00"/>
<path opacity="0.1" d="M124.67 62.0369C124.67 62.0369 119.868 61.3547 120.265 65.7054C120.265 65.7054 120.123 66.4605 120.645 66.8397C120.645 66.8397 120.666 66.5156 121.152 66.6615C121.323 66.709 121.498 66.7308 121.673 66.7263C121.909 66.7201 122.137 66.6167 122.324 66.4314C122.324 66.4314 123.706 65.8043 124.345 63.0091C124.345 63.0091 124.759 62.4177 124.749 62.2572L123.919 62.6477C123.919 62.6477 124.172 63.4158 123.919 64.0251C123.919 64.0251 123.945 62.6785 123.792 62.6996C123.76 62.6996 123.359 62.9313 123.359 62.9313C123.359 62.9313 123.785 64.2681 123.387 65.1999C123.387 65.1999 123.588 63.6005 123.206 63.0237L122.616 63.4126C122.616 63.4126 123.124 64.798 122.7 65.8739C122.7 65.8739 122.864 64.192 122.492 63.5098L121.953 63.9959C121.953 63.9959 122.425 65.3587 122.07 66.2515C122.07 66.2515 122.105 64.2827 121.835 64.1174C121.835 64.1174 121.363 64.6036 121.284 64.8045C121.284 64.8045 121.606 65.7929 121.363 66.2871C121.363 66.2871 121.278 64.9698 121.166 64.9568C121.166 64.9568 120.679 65.7945 120.609 66.386C120.653 65.8379 120.808 65.314 121.059 64.8661C120.796 64.9125 120.55 65.0561 120.349 65.2793C120.349 65.2793 120.445 64.67 121.18 64.6651C121.18 64.6651 121.579 64.0316 121.687 63.9975C121.687 63.9975 120.961 63.8728 120.508 64.0948C120.508 64.0948 120.92 63.5406 121.827 63.863L122.359 63.3623C122.359 63.3623 121.406 63.1322 120.991 63.291C120.991 63.291 121.48 62.8049 122.502 63.2505L123.077 62.86C123.077 62.86 122.267 62.5813 121.776 62.6315C121.776 62.6315 122.305 62.3075 123.244 62.7563L123.652 62.5538C123.652 62.5538 123.058 62.3642 122.884 62.3285C122.71 62.2929 122.701 62.2313 122.701 62.2313C123.085 62.1751 123.473 62.2559 123.822 62.4646C123.822 62.4646 124.683 62.1065 124.67 62.0369Z" fill="#FFBA00"/>
<path opacity="0.1" d="M108.369 13.7474C108.369 13.7474 104.499 10.0481 103.116 14.0553C103.116 14.0553 102.694 14.6144 102.997 15.2836C102.997 15.2836 103.142 15.0227 103.504 15.4553C103.633 15.6081 103.775 15.7408 103.928 15.8507C104.135 15.998 104.374 16.0549 104.609 16.0128C104.609 16.0128 106.049 16.3676 107.709 14.3729C107.709 14.3729 108.299 14.1299 108.355 13.9873L107.484 13.7863C107.484 13.7863 107.393 14.6079 106.943 14.9757C106.943 14.9757 107.499 13.8317 107.355 13.7491C107.326 13.7312 106.891 13.668 106.891 13.668C106.891 13.668 106.727 15.0972 106.017 15.6368C106.017 15.6368 106.825 14.3875 106.725 13.6421L106.062 13.5967C106.062 13.5967 105.949 15.1183 105.158 15.7729C105.158 15.7729 105.966 14.4296 105.918 13.6L105.261 13.668C105.261 13.668 105.135 15.1475 104.468 15.6854C104.468 15.6854 105.279 14.0132 105.112 13.6956C105.112 13.6956 104.512 13.8042 104.364 13.9305C104.364 13.9305 104.25 14.9903 103.844 15.2593C103.844 15.2593 104.293 14.0683 104.202 13.9856C104.202 13.9856 103.45 14.3924 103.154 14.8558C103.41 14.4121 103.752 14.0613 104.146 13.8382C103.901 13.7079 103.631 13.6719 103.37 13.7345C103.37 13.7345 103.693 13.271 104.33 13.7426C104.33 13.7426 104.924 13.4558 105.026 13.4914C105.026 13.4914 104.449 12.9129 103.971 12.8125C103.971 12.8125 104.546 12.6018 105.199 13.4606L105.857 13.3748C105.857 13.3748 105.127 12.5646 104.706 12.4284C104.706 12.4284 105.319 12.3296 106.025 13.3699L106.675 13.4072C106.675 13.4072 106.087 12.6423 105.644 12.3669C105.644 12.3669 106.228 12.4317 106.86 13.425L107.293 13.5141C107.293 13.5141 106.855 12.9664 106.718 12.8238C106.581 12.6812 106.602 12.6342 106.602 12.6342C106.954 12.8342 107.256 13.155 107.474 13.5611C107.474 13.5611 108.353 13.8139 108.369 13.7474Z" fill="#FFBA00"/>
<path opacity="0.1" d="M111.359 40.4548C111.359 40.4548 110.025 34.5193 107.025 36.6501C107.025 36.6501 106.424 36.7684 106.349 37.5365C106.349 37.5365 106.587 37.4409 106.67 38.0615C106.7 38.2845 106.752 38.502 106.822 38.7097C106.916 38.9889 107.079 39.2211 107.286 39.3708C107.286 39.3708 108.267 40.7643 110.532 40.4532C110.532 40.4532 111.118 40.7157 111.229 40.6444L110.63 39.8115C110.63 39.8115 110.169 40.3981 109.637 40.343C109.637 40.343 110.621 39.8569 110.545 39.6835C110.529 39.6479 110.212 39.2606 110.212 39.2606C110.212 39.2606 109.409 40.275 108.587 40.1567C108.587 40.1567 109.821 39.784 110.092 39.1132L109.585 38.5655C109.585 38.5655 108.776 39.69 107.836 39.6025C107.836 39.6025 109.114 39.1537 109.467 38.4553L108.912 38.0032C108.912 38.0032 108.106 39.0807 107.325 38.9997C107.325 38.9997 108.762 38.2916 108.78 37.9108C108.78 37.9108 108.25 37.5349 108.071 37.5219C108.071 37.5219 107.479 38.277 107.029 38.1798C107.029 38.1798 107.949 37.5754 107.916 37.4393C107.916 37.4393 107.125 37.1849 106.67 37.3259C107.082 37.1696 107.519 37.1534 107.938 37.2789C107.804 36.9857 107.605 36.7491 107.367 36.5983C107.367 36.5983 107.844 36.4768 108.128 37.3437C108.128 37.3437 108.738 37.5738 108.801 37.6807C108.801 37.6807 108.615 36.7749 108.281 36.3261C108.281 36.3261 108.839 36.6015 108.952 37.7941L109.518 38.2333C109.518 38.2333 109.32 37.018 109.046 36.5902C109.046 36.5902 109.581 36.984 109.653 38.358L110.16 38.8879C110.16 38.8879 110.053 37.8249 109.83 37.2675C109.83 37.2675 110.264 37.7698 110.3 39.05L110.602 39.4551C110.602 39.4551 110.513 38.6805 110.475 38.4601C110.437 38.2398 110.475 38.209 110.475 38.209C110.663 38.64 110.753 39.1293 110.735 39.622C110.735 39.622 111.313 40.4937 111.359 40.4548Z" fill="#FFBA00"/>
<path opacity="0.1" d="M81.6366 53.8296C81.6366 53.8296 79.0462 48.6151 76.641 51.736C76.641 51.736 76.0907 52.0601 76.1871 52.8298C76.1871 52.8298 76.3963 52.6515 76.6119 53.2187C76.6893 53.4197 76.7855 53.6079 76.8984 53.7793C77.0496 54.0133 77.2567 54.1773 77.488 54.246C77.488 54.246 78.7369 55.2312 80.8416 54.1164C80.8416 54.1164 81.4616 54.1585 81.5529 54.0499L80.7922 53.4666C80.7922 53.4666 80.479 54.1958 79.9553 54.3335C79.9553 54.3335 80.7947 53.5233 80.6818 53.3742C80.6603 53.3451 80.2698 53.0891 80.2698 53.0891C80.2698 53.0891 79.7208 54.3497 78.9068 54.5328C78.9068 54.5328 80.0086 53.7307 80.1227 52.9886L79.5154 52.6467C79.5154 52.6467 78.9867 54.0159 78.0661 54.2671C78.0661 54.2671 79.1946 53.3775 79.3784 52.5802L78.7445 52.3469C78.7445 52.3469 78.2094 53.6708 77.4423 53.8733C77.4423 53.8733 78.6646 52.6775 78.5974 52.3048C78.5974 52.3048 78.0066 52.1346 77.8367 52.1865C77.8367 52.1865 77.4347 53.1247 76.9808 53.1928C76.9808 53.1928 77.7314 52.2821 77.6693 52.1622C77.6693 52.1622 76.854 52.2027 76.4483 52.5025C76.8102 52.2028 77.2273 52.0296 77.6579 52.0002C77.4651 51.7669 77.2231 51.6109 76.9618 51.5513C76.9618 51.5513 77.3916 51.2645 77.8493 51.9937C77.8493 51.9937 78.4833 51.9937 78.5708 52.0747C78.5708 52.0747 78.1904 51.2645 77.7733 50.9615C77.7733 50.9615 78.3692 51.0263 78.7394 52.1298L79.3797 52.3469C79.3797 52.3469 78.922 51.2531 78.5657 50.9404C78.5657 50.9404 79.1654 51.1251 79.5369 52.4198L80.1354 52.7439C80.1354 52.7439 79.7981 51.7636 79.4596 51.305C79.4596 51.305 79.987 51.6291 80.3027 52.846L80.6831 53.1263C80.6831 53.1263 80.4295 52.415 80.3395 52.2189C80.2495 52.0228 80.285 51.9775 80.285 51.9775C80.5594 52.3238 80.753 52.7609 80.8441 53.2398C80.8441 53.2398 81.6023 53.8847 81.6366 53.8296Z" fill="#FFBA00"/>
<path d="M98.6606 27.187C98.6606 27.187 96.197 21.8737 93.7157 24.8974C93.7157 24.8974 93.1579 25.2053 93.2365 25.9734C93.2365 25.9734 93.4482 25.8016 93.6511 26.3768C93.7236 26.5813 93.8151 26.7739 93.9237 26.9505C94.0693 27.1894 94.2725 27.3603 94.5018 27.4366C94.5018 27.4366 95.7254 28.4704 97.8567 27.4366C97.8567 27.4366 98.4754 27.503 98.5693 27.3977L97.825 26.7852C97.825 26.7852 97.4954 27.4998 96.9679 27.6181C96.9679 27.6181 97.8263 26.8354 97.7185 26.6879C97.6957 26.6572 97.3128 26.3849 97.3128 26.3849C97.3128 26.3849 96.7333 27.6245 95.9181 27.7752C95.9181 27.7752 97.0389 27.0169 97.1695 26.2812L96.5711 25.9215C96.5711 25.9215 96.0094 27.2713 95.0825 27.4868C95.0825 27.4868 96.2325 26.6426 96.4354 25.8534L95.809 25.5942C95.809 25.5942 95.241 26.8905 94.4701 27.0687C94.4701 27.0687 95.7203 25.9215 95.662 25.5472C95.662 25.5472 95.0762 25.3527 94.9012 25.3981C94.9012 25.3981 94.4765 26.3201 94.0213 26.3704C94.0213 26.3704 94.7934 25.4921 94.7351 25.3689C94.7351 25.3689 93.9186 25.377 93.5065 25.6606C93.8757 25.3761 94.2965 25.2197 94.7275 25.2069C94.5401 24.966 94.3017 24.8004 94.0416 24.7305C94.0416 24.7305 94.479 24.4599 94.9291 25.2069C94.9291 25.2069 95.5631 25.2345 95.648 25.3171C95.648 25.3171 95.2892 24.5069 94.8784 24.1731C94.8784 24.1731 95.4718 24.2606 95.8154 25.3787L96.4493 25.6217C96.4493 25.6217 96.0195 24.5101 95.6696 24.1828C95.6696 24.1828 96.2655 24.3918 96.6053 25.6995L97.1949 26.0511C97.1949 26.0511 96.8817 25.0578 96.5609 24.5928C96.5609 24.5928 97.0795 24.9379 97.3673 26.1662L97.7388 26.4611C97.7388 26.4611 97.5004 25.74 97.4167 25.5407C97.3331 25.3414 97.3686 25.2976 97.3686 25.2976C97.6343 25.6547 97.8174 26.0989 97.8973 26.581C97.8973 26.581 98.6238 27.2405 98.6606 27.187Z" fill="#FFBA00"/>
<path d="M83.0744 38.3597C83.0744 38.3597 83.2012 32.186 79.845 33.0561C79.845 33.0561 79.2441 32.9378 78.9905 33.6411C78.9905 33.6411 79.2441 33.6411 79.1731 34.2649C79.1498 34.4874 79.1473 34.7126 79.1654 34.9358C79.1884 35.2386 79.2886 35.5233 79.4507 35.746C79.4507 35.746 80.0555 37.4539 82.2883 38.034C82.2883 38.034 82.784 38.512 82.9083 38.4861L82.5279 37.462C82.5279 37.462 81.951 37.8411 81.4553 37.5835C81.4553 37.5835 82.5076 37.5041 82.4785 37.3064C82.4785 37.2659 82.2604 36.7733 82.2604 36.7733C82.2604 36.7733 81.2537 37.4296 80.4993 36.9985C80.4993 36.9985 81.7672 37.1201 82.1818 36.587L81.828 35.8691C81.828 35.8691 80.7909 36.6275 79.9161 36.1802C79.9161 36.1802 81.241 36.2483 81.7431 35.7184L81.3209 35.0703C81.3209 35.0703 80.2977 35.7865 79.5724 35.4073C79.5724 35.4073 81.1091 35.289 81.2207 34.9309C81.2207 34.9309 80.8048 34.3686 80.6375 34.2828C80.6375 34.2828 79.8945 34.7689 79.4888 34.5064C79.4888 34.5064 80.5031 34.2892 80.5094 34.145C80.5094 34.145 79.8159 33.5957 79.348 33.5552C79.7794 33.5651 80.2013 33.7193 80.5716 34.0024C80.5138 33.6712 80.3816 33.3688 80.1912 33.1323C80.1912 33.1323 80.6743 33.202 80.7402 34.1369C80.7402 34.1369 81.2689 34.5939 81.3031 34.7203C81.3031 34.7203 81.3399 33.7853 81.1282 33.2279C81.1282 33.2279 81.5948 33.7059 81.4198 34.8856L81.8547 35.524C81.8547 35.524 81.9536 34.2892 81.7951 33.7756C81.7951 33.7756 82.211 34.3573 81.9548 35.6957L82.306 36.3941C82.306 36.3941 82.4557 35.3393 82.3758 34.7187C82.3758 34.7187 82.6699 35.3668 82.4011 36.5999L82.5939 37.1022C82.5939 37.1022 82.6915 36.3293 82.7042 36.1041C82.7168 35.8789 82.765 35.8643 82.765 35.8643C82.8413 36.3476 82.8111 36.8486 82.6775 37.3113C82.6775 37.3113 83.0186 38.3807 83.0744 38.3597Z" fill="#FFBA00"/>
<path opacity="0.1" d="M88.6226 116.806C90.5084 116.806 92.0371 116.476 92.0371 116.069C92.0371 115.662 90.5084 115.332 88.6226 115.332C86.7368 115.332 85.2081 115.662 85.2081 116.069C85.2081 116.476 86.7368 116.806 88.6226 116.806Z" fill="#FFBA00"/>
<path opacity="0.1" d="M76.1756 128C78.0613 128 79.59 127.67 79.59 127.263C79.59 126.855 78.0613 126.525 76.1756 126.525C74.2898 126.525 72.7611 126.855 72.7611 127.263C72.7611 127.67 74.2898 128 76.1756 128Z" fill="#FFBA00"/>
<path opacity="0.1" d="M11.8092 122.265C13.695 122.265 15.2237 121.935 15.2237 121.528C15.2237 121.121 13.695 120.791 11.8092 120.791C9.92348 120.791 8.39478 121.121 8.39478 121.528C8.39478 121.935 9.92348 122.265 11.8092 122.265Z" fill="#FFBA00"/>
<path opacity="0.1" d="M102.074 127.263C103.96 127.263 105.488 126.933 105.488 126.525C105.488 126.118 103.96 125.788 102.074 125.788C100.188 125.788 98.6595 126.118 98.6595 126.525C98.6595 126.933 100.188 127.263 102.074 127.263Z" fill="#FFBA00"/>
<path d="M105.629 118.273C108.445 118.273 110.727 117.779 110.727 117.171C110.727 116.562 108.445 116.069 105.629 116.069C102.813 116.069 100.531 116.562 100.531 117.171C100.531 117.779 102.813 118.273 105.629 118.273Z" fill="#FFBA00"/>
<path d="M107.743 115.367C107.976 115.126 108.145 114.799 108.228 114.431C108.292 114.058 108.168 113.612 107.89 113.476C107.578 113.324 107.245 113.599 106.991 113.878C106.737 114.157 106.45 114.476 106.119 114.418C106.289 114.221 106.416 113.971 106.488 113.692C106.56 113.413 106.574 113.116 106.529 112.828C106.515 112.709 106.476 112.597 106.415 112.504C106.242 112.267 105.928 112.37 105.721 112.556C105.061 113.149 104.877 114.293 104.874 115.324C104.808 114.952 104.863 114.565 104.862 114.189C104.861 113.813 104.778 113.379 104.526 113.181C104.371 113.071 104.196 113.015 104.019 113.019C103.722 113.006 103.391 113.044 103.19 113.321C102.936 113.664 103.003 114.243 103.221 114.617C103.44 114.991 103.773 115.233 104.08 115.495C104.325 115.683 104.535 115.938 104.694 116.242C104.712 116.285 104.726 116.329 104.738 116.375H106.597C107.013 116.107 107.398 115.768 107.743 115.367Z" fill="#FFBA00"/>
<path d="M9.51685 118.101C9.51685 118.101 11.4631 118.025 12.0527 117.49C12.6422 116.955 15.0487 116.319 15.1945 117.176C15.3403 118.033 18.1209 121.436 15.9223 121.458C13.7238 121.481 10.8139 121.021 10.2281 120.564C9.64237 120.107 9.51685 118.101 9.51685 118.101Z" fill="#A8A8A8"/>
<path opacity="0.2" d="M15.9591 121.16C13.7605 121.183 10.8507 120.723 10.2649 120.266C9.81861 119.919 9.6411 118.673 9.58151 118.098H9.51685C9.51685 118.098 9.64364 120.105 10.2256 120.561C10.8076 121.016 13.7212 121.478 15.9198 121.455C16.5537 121.455 16.7731 121.16 16.7617 120.733C16.6729 120.993 16.4307 121.155 15.9591 121.16Z" fill="black"/>
</g>
<defs>
<linearGradient id="paint0_linear_598_2789" x1="28.273" y1="70.2312" x2="67.8481" y2="70.2312" gradientUnits="userSpaceOnUse">
<stop stop-color="#808080" stop-opacity="0.25"/>
<stop offset="0.54" stop-color="#808080" stop-opacity="0.12"/>
<stop offset="1" stop-color="#808080" stop-opacity="0.1"/>
</linearGradient>
<clipPath id="clip0_598_2789">
<rect width="128" height="128" fill="white"/>
</clipPath>
</defs>
</svg>
